<svg width="1391px" height="1132px" viewBox="0 0 1391 1132" version="1.1" xmlns="http://www.w3.org/2000/svg" xmlns:xlink="http://www.w3.org/1999/xlink">
    <g id="Page-1" stroke="none" stroke-width="1" fill="none" fill-rule="evenodd">
        <g id="Plan-de-travail-1">
            <path d="M912.96,1131.88 L0.96,1131.88 L0.96,753.64 C2.81,754.64 2.63,756.57 2.96,758.27 C5.17,769.84 11.38,777.77 22.73,782.09 C48.44,791.87 74.42,800.8 100.86,808.39 C134.86,818.14 169.26,825.98 203.86,833.27 C232.63,839.33 261.43,845.27 290.29,850.92 C309.42,854.65 328.67,857.78 347.89,861.08 C362.54,863.6 377.22,865.94 391.89,868.37 L434.46,875.47 C435.87715,875.73467 437.310296,875.905044 438.75,875.98 C441.858781,876.280457 444.866838,874.78225 446.5,872.12 C446.93,871.45 447.33,870.75 447.77,870.12 C454.07,860.4 458.59,849.82 462.5,838.97 C468.73,821.64 472.92,803.74 477.04,785.82 C477.106834,785.155008 477.106834,784.484992 477.04,783.82 C475.82,783.48 474.78,783.1 473.71,782.9 C469.63,782.12 465.55,781.29 461.44,780.69 C449.11,778.88 436.75,777.23 424.44,775.4 C410.68,773.36 396.933333,771.253333 383.2,769.08 C368.36,766.76 353.49,764.55 338.69,761.98 C318.38,758.46 298.12,754.62 277.83,750.98 C252.49,746.41 227.32,741.14 202.46,734.42 C183.33,729.25 164.11,724.42 145.02,719.14 C124.335284,713.515608 104.093684,706.37289 84.46,697.77 C78.16,694.97 72.08,691.89 66.67,687.49 C61.86,683.58 56.13,682.35 49.96,683.17 C42.1411545,684.217763 34.7905881,687.498956 28.79,692.62 C21.5144524,698.68189 15.5208961,706.13389 11.16,714.54 C7.05109607,722.332349 4.24085924,730.742794 2.84,739.44 C2.62,740.86 2.59,742.36 1,743.08 L1,1 L721.96,1 C721.088492,1.35604367 720.192931,1.6501082 719.28,1.88 C713.772016,2.88763916 708.38559,4.47306526 703.21,6.61 C692.11,11.2 682.6,18.14 674.03,26.45 C666.396744,33.9875103 659.374634,42.1197816 653.03,50.77 C640.13,67.98 629.56,86.59 620.1,105.87 C612.133648,121.740842 605.691434,138.331886 600.86,155.42 C594.47,178.82 591.25,202.7 589.54,226.83 C588.48,241.83 588.29,256.83 588.54,271.92 C588.97,294.48 590.54,316.92 593.02,339.4 C595.31,360.24 598.38,380.95 602.09,401.57 C608.66,438.09 616.87,474.24 626.39,510.11 C638.03,554.01 651.73,597.28 666.61,640.19 C680.33,679.77 694.87,719.05 711.5,757.52 C720.9,779.23 730.74,800.76 740.11,822.52 C760.42,869.66 781.7,916.33 805.42,961.9 C832.9,1014.69 861.5,1066.83 892.81,1117.45 C893.81,1119.09 894.81,1120.74 895.92,1122.29 C899.158964,1126.95311 904.14806,1130.10602 909.75,1131.03 C910.88,1131.17 911.96,1131.58 912.96,1131.88 Z M223.67,730.88 C225.18,731.44 226.46,732.03 227.8,732.39 C229.49,732.83 231.24,733.09 232.97,733.39 C250.696667,736.823333 268.426667,740.256667 286.16,743.69 C293.846667,745.19 301.513333,746.76 309.16,748.4 C317.83,750.25 325.33,748.4 331.49,741.81 C332.04,741.23 332.6,740.65 333.16,740.09 C358.79,714.69 389.44,699.38 425.22,694.66 C440.26033,692.669569 455.541389,695.587596 468.79,702.98 C475.9,706.82 475.94,706.83 478.89,714.3 C481.42,720.69 484.23,726.99 485.71,733.74 C488.972727,749.286001 489.166355,765.319741 486.28,780.94 C483.614144,795.896351 480.05443,810.679513 475.62,825.21 C463.52,865.48 442.36,900.51 413.7,931.1 C403.026264,942.619516 390.901507,952.703871 377.63,961.1 C357.87,973.49 336.81,982.31 313.33,984.46 C306.643128,985.170191 299.895383,985.079549 293.23,984.19 C276.78,981.78 265.4,972.9 258.96,957.63 C255.732186,949.771942 253.859014,941.423816 253.42,932.94 C252.49,918.76 254.47,904.85 257.73,891.1 C260.06,881.31 262.64,871.57 265.08,861.8 C265.422929,860.570396 265.673625,859.316915 265.83,858.05 C266.01,856.05 265.46,854.97 263.55,854.35 C261.11194,853.588838 258.635105,852.957946 256.13,852.46 C229.216667,846.82 202.306667,841.203333 175.4,835.61 C172.11,834.92 168.84,834.19 165.53,833.61 C162.42,833.06 161.23,833.71 159.76,836.61 C159.25,837.61 158.82,838.61 158.41,839.68 C156.95,843.4 155.48,847.12 154.07,850.86 C143.46,879.12 135.59,908.04 133.07,938.24 C131.46,957.34 132.42,976.24 136.95,994.95 C140.182063,1008.99224 145.490462,1022.47389 152.7,1034.95 C165.24,1056.16333 183.133333,1070.87667 206.38,1079.09 C219.102989,1083.46628 232.388692,1085.99208 245.83,1086.59 C258.781072,1087.24486 271.765164,1086.57471 284.58,1084.59 C310.700155,1080.65834 336.223178,1073.46204 360.55,1063.17 C395.92,1048.17 427.77,1027.64 456.97,1002.83 C480.71,982.67 501.74,959.89 521.35,935.76 C535.993023,917.961832 549.100004,898.953699 560.53,878.94 C574.405693,854.256063 586.473979,828.598841 596.64,802.17 C603.748349,784.155304 608.559541,765.317068 610.96,746.1 C613.439869,726.375734 612.321774,706.365224 607.66,687.04 C600.31,657.15 584.96,632.3 560.66,613.14 C558.909783,611.746501 557.076395,610.460792 555.17,609.29 C551.310619,606.913787 546.707746,606.051638 542.25,606.87 C540.066259,607.350953 537.928271,608.02012 535.86,608.87 C533.48,609.74 531.25,611.03 528.76,611.53 C527.47963,610.241639 526.844681,608.446897 527.03,606.64 C527.11,601.16 524.03,598.07 519.18,596.48 C516.6,595.63 513.96,594.95 511.32,594.33 C494.26,590.33 477.04,590.23 459.82,592.71 C434.17879,596.466335 408.983687,602.808665 384.62,611.64 C334.16,629.78 289.62,657.26 252.28,695.95 C243.385142,705.15231 234.999329,714.833383 227.16,724.95 C225.654154,726.708228 224.484683,728.728532 223.71,730.91 L223.67,730.88 Z" id="Shape" fill="#FFFFFF" fill-rule="nonzero"></path>
            <path d="M1390.12,522.28 L1390.12,1131.88 L927.4,1131.88 C928.119086,1131.55901 928.869861,1131.31434 929.64,1131.15 C944.14,1129.56 957.07,1123.99 969.05,1115.91 C971.974818,1113.94149 974.587306,1111.54474 976.8,1108.8 C982.22,1102.11 982.27,1098.23 977.24,1091.16 C974.93,1087.9 972.63,1084.61 970.58,1081.16 C934.68,1021.38 900.523333,960.613333 868.11,898.86 C851.98,867.97 835.75,837.11 820.81,805.62 C797.42,756.35 776.43,706.04 756.51,655.29 C740.51,614.5 726.02,573.18 713.87,531.06 C703.636667,495.56 694.896667,459.696667 687.65,423.47 C684.43,407.32 681.57,391.1 679.56,374.75 C678.14,363.156667 676.806667,351.56 675.56,339.96 C674.09,325.96 673.35,311.9 673.18,297.82 C672.99,281.34 673.75,264.89 674.71,248.44 C675.76069,228.632714 678.405918,208.942313 682.62,189.56 C688.28,164.16 696.62,139.7 708.82,116.67 C712.13,110.46 715.42,104.24 718.76,98.05 C719.41695,96.7745165 720.215304,95.5769863 721.14,94.48 C722.937625,92.3492095 725.695672,91.2791474 728.46,91.64 C732.488093,91.9459999 736.262023,93.7261554 739.06,96.64 C744.709261,102.537031 749.578977,109.134168 753.55,116.27 C760.269301,128.821499 765.787174,141.98002 770.03,155.57 C778.17,181.02 784.95,206.84 791.03,232.84 C796.97,258.37 802.55,283.98 808.16,309.59 C812.16,327.71 815.94,345.86 818.78,364.19 C822.9,390.73 827.15,417.26 829.78,444.01 C831.14,458.01 832.36,472.01 833.2,486.08 C833.92,498.21 834.2,510.37 834.37,522.52 C834.877304,544.754262 833.982195,566.99839 831.69,589.12 C829.681937,608.203018 826.39116,627.129162 821.84,645.77 C815.91,669.48 807.37,692.14 794.84,713.2 C794.52,713.75 794.22,714.32 793.9,714.87 C792.532382,717.27415 792.280448,720.154957 793.21,722.76 C793.686843,724.123806 794.241076,725.459308 794.87,726.76 C798.736667,735.36 802.606667,743.96 806.48,752.56 C815.106667,771.82 823.73,791.08 832.35,810.34 C833.493464,813.204357 835.028036,815.896588 836.91,818.34 C838.818381,817.380061 840.49409,816.014921 841.82,814.34 C847.35,807.92 853.04,801.61 858.25,794.94 C873.030434,775.80488 885.322015,754.870886 894.83,732.64 C909.31,699.17 918.58,664.17 924.49,628.17 C928.477315,603.209653 930.94187,578.029774 931.87,552.77 C932.7,532.64 933.08,512.5 932.48,492.34 C932.03,477.34 931.28,462.29 929.97,447.34 C928.47,430.14 926.5,412.98 924.7,395.81 C922.214741,373.559434 918.404643,351.476895 913.29,329.68 C908.41,308.16 902.42,286.93 896.7,265.68 C892.1,248.54 887.24,231.47 880.54,215 C869.573333,188.06 858.503333,161.156667 847.33,134.29 C840.87,118.8 834.2,103.39 826.6,88.4 C816.86,69.17 805.41,51.17 790.79,35.22 C783.525831,27.1015844 775.228429,19.9707944 766.11,14.01 C756.85,8.14 747.03,3.62 736.11,1.78 C735.521387,1.5947451 734.959853,1.33247205 734.44,1 L1390.12,1 L1390.12,491.56 C1389.7732,490.699745 1389.48259,489.817892 1389.25,488.92 C1388.93,487.36 1388.87,485.75 1388.5,484.2 C1382.88,460.38 1368.68,443.72 1346.14,434.38 C1330.70825,428.085093 1314.34692,424.368912 1297.71,423.38 C1292.12,423 1286.52,422.95 1280.93,422.74 C1276.77,422.59 1272.61,422.46 1268.46,422.29 C1264.57198,422.036635 1260.76797,423.498313 1258.05,426.29 C1253.96,430.29 1249.75,434.29 1246.38,438.99 C1245.82319,439.666084 1245.22893,440.310428 1244.6,440.92 C1243.49,439.5 1242.6,438.2 1241.53,437.02 C1233.71,428.17 1224.41,423.89 1212.46,427.46 C1199.59,431.3 1186.63,434.83 1173.81,438.8 C1122.16,454.8 1077.81,482.7 1040.15,521.4 C1017.91,544.28 1000.4,570.64 985.09,598.49 C982.27,603.63 980.48,609.37 978.55,614.95 C976.88,619.76 977.93,621.79 982.71,623.35 C986.198796,624.493997 989.768927,625.373159 993.39,625.98 C1002.96,627.58 1012.56,626.82 1022.08,625.59 C1038.9,623.43 1054.72,617.98 1069.86,610.44 C1078.98004,605.990121 1086.59187,598.959009 1091.75,590.22 C1094.13,586.22 1096.63667,582.316667 1099.27,578.51 C1104.43839,570.788585 1110.60141,563.781644 1117.6,557.67 C1142.1,536.78 1170.48,525.1 1202.49,522.18 C1208.05,521.67 1213.66,521.55 1219.24,521.18 C1225.56,520.8 1231.59,519.62 1236.73,515.49 C1240.63,512.36 1241.42,512.49 1245.07,516.28 C1245.19,516.4 1245.29,516.52 1245.4,516.64 C1248.033,519.502377 1251.72154,521.164203 1255.61,521.24 C1257.05,521.3 1258.5,521.24 1259.93,521.37 C1265.77,521.99 1270.23,524.71 1272.65,530.21 C1273.34298,531.804135 1273.8108,533.486934 1274.04,535.21 C1276.04,550.203333 1272.04,563.383333 1262.04,574.75 C1254.00629,583.942269 1244.20512,591.424083 1233.22,596.75 C1213.51,606.3 1193.65,615.53 1173.46,624.04 C1145.17,635.97 1117.06,648.28 1089.72,662.29 C1066.07,674.41 1043.07,687.63 1021.31,702.94 C998.59,718.94 977.72,737.03 959.73,758.29 C934.8,787.74 918.13,821.06 912.54,859.53 C911.46,866.99 910.81,874.44 911.79,881.99 C914.79,905.41 926.63,922.82 947.37,934.06 C957.457787,939.359804 968.512185,942.56728 979.87,943.49 C992.157018,944.668262 1004.55303,943.898784 1016.6,941.21 C1027.35431,938.747911 1037.92872,935.557214 1048.25,931.66 C1109.05,909.27 1165.25,878.66 1215.71,837.81 C1216.42686,837.171769 1217.18157,836.577357 1217.97,836.03 C1219.87,834.82 1221.6,835.55 1221.73,837.77 C1221.94,841.28 1221.98,844.77 1221.92,848.32 C1221.7429,856.962344 1222.44654,865.600254 1224.02,874.1 C1226.10326,885.941938 1230.32909,897.304565 1236.49,907.63 C1240.52556,913.975308 1245.16009,919.919159 1250.33,925.38 C1252.83677,928.448913 1256.95026,929.69758 1260.74,928.54 C1262.74,928 1264.74,927.54 1266.74,926.86 C1291.52,917.72 1310.62,901.66 1324.47,879.27 C1324.96901,878.446864 1325.41977,877.595429 1325.82,876.72 C1327.68,872.72 1327.82,868.72 1325.57,864.72 C1324.58845,862.895804 1323.91281,860.92294 1323.57,858.88 C1322.31632,852.768456 1321.5274,846.570725 1321.21,840.34 C1320.51432,825.468622 1320.89531,810.566401 1322.35,795.75 C1323.35,785.1 1325.03,774.5 1326.65,763.91 C1330.13612,741.636704 1334.83646,719.570491 1340.73,697.81 C1347.44,672.62 1355.58,647.87 1363.73,623.13 C1371.73,598.84 1379.36,574.42 1384.79,549.39 C1386.59,541.12 1388.88,532.93 1389.36,524.39 C1389.52356,523.657494 1389.77891,522.948559 1390.12,522.28 Z" id="Path" fill="#FFFFFF"></path>
            <path d="M734.44,1 C734.959853,1.33247205 735.521387,1.5947451 736.11,1.78 C747.03,3.62 756.85,8.14 766.11,14.01 C775.228429,19.9707944 783.525831,27.1015844 790.79,35.22 C805.41,51.17 816.86,69.17 826.6,88.36 C834.2,103.36 840.87,118.76 847.33,134.25 C858.536667,161.09 869.606667,187.993333 880.54,214.96 C887.24,231.43 892.1,248.5 896.7,265.64 C902.42,286.94 908.41,308.17 913.29,329.64 C918.404643,351.436895 922.214741,373.519434 924.7,395.77 C926.5,412.94 928.47,430.1 929.97,447.3 C931.28,462.3 932.03,477.3 932.48,492.3 C933.08,512.46 932.7,532.6 931.87,552.73 C930.94187,577.989774 928.477315,603.169653 924.49,628.13 C918.58,664.07 909.31,699.07 894.75,732.55 C885.242015,754.780886 872.950434,775.71488 858.17,794.85 C852.96,801.52 847.27,807.85 841.74,814.25 C840.41409,815.924921 838.738381,817.290061 836.83,818.25 C834.948036,815.806588 833.413464,813.114357 832.27,810.25 C823.65,790.99 815.026667,771.73 806.4,752.47 C802.54,743.856667 798.67,735.256667 794.79,726.67 C794.161076,725.369308 793.606843,724.033806 793.13,722.67 C792.200448,720.064957 792.452382,717.18415 793.82,714.78 C794.14,714.23 794.44,713.66 794.76,713.11 C807.3,692.05 815.84,669.39 821.76,645.68 C826.308354,627.085374 829.602436,608.206204 831.62,589.17 C833.912195,567.04839 834.807304,544.804262 834.3,522.57 C834.11,510.42 833.85,498.26 833.13,486.13 C832.29,472.13 831.07,458.06 829.71,444.06 C827.12,417.31 822.87,390.78 818.71,364.24 C815.87,345.91 812.05,327.76 808.09,309.64 C802.52,284.01 796.96,258.4 790.96,232.87 C784.96,206.87 778.14,181.05 769.96,155.6 C765.717174,142.01002 760.199301,128.851499 753.48,116.3 C749.508977,109.164168 744.639261,102.567031 738.99,96.67 C736.192023,93.7561554 732.418093,91.9759999 728.39,91.67 C725.625672,91.3091474 722.867625,92.3792095 721.07,94.51 C720.145304,95.6069863 719.34695,96.8045165 718.69,98.08 C715.35,104.27 712.06,110.49 708.75,116.7 C696.5,139.7 688.21,164.19 682.55,189.59 C678.335918,208.972313 675.69069,228.662714 674.64,248.47 C673.64,264.92 672.92,281.37 673.11,297.85 C673.28,311.93 674.02,325.99 675.49,339.99 C676.71,351.596667 678.043333,363.193333 679.49,374.78 C681.49,391.13 684.36,407.35 687.58,423.5 C694.82,459.726667 703.56,495.59 713.8,531.09 C725.95,573.21 740.44,614.53 756.44,655.32 C776.36,706.07 797.35,756.38 820.74,805.65 C835.68,837.14 851.91,868 868.04,898.89 C900.32,960.71 934.476667,1021.47667 970.51,1081.19 C972.56,1084.61 974.86,1087.9 977.17,1091.19 C982.17,1098.26 982.17,1102.19 976.73,1108.83 C974.517306,1111.57474 971.904818,1113.97149 968.98,1115.94 C956.98,1124.02 944.07,1129.59 929.57,1131.18 C928.799861,1131.34434 928.049086,1131.58901 927.33,1131.91 L912.96,1131.91 C911.89,1131.61 910.84,1131.23 909.76,1131.03 C904.15806,1130.10602 899.168964,1126.95311 895.93,1122.29 C894.81,1120.74 893.83,1119.09 892.82,1117.45 C861.51,1066.83 832.91,1014.69 805.43,961.9 C781.71,916.33 760.43,869.66 740.12,822.52 C730.75,800.79 720.91,779.26 711.51,757.52 C694.96,719.05 680.38,679.77 666.66,640.17 C651.78,597.26 638.08,553.99 626.44,510.09 C616.92,474.22 608.71,438.09 602.14,401.55 C598.43,380.93 595.36,360.22 593.07,339.38 C590.61,316.95 589.02,294.46 588.59,271.9 C588.3,256.9 588.49,241.83 589.59,226.81 C591.3,202.68 594.52,178.81 600.91,155.4 C605.741434,138.311886 612.183648,121.720842 620.15,105.85 C629.61,86.57 640.15,67.96 653.08,50.75 C659.424634,42.0997816 666.446744,33.9675103 674.08,26.43 C682.65,18.12 692.16,11.18 703.26,6.59 C708.43559,4.45306526 713.822016,2.86763916 719.33,1.86 C720.242931,1.6301082 721.138492,1.33604367 722.01,0.98 L734.44,1 Z M904.81,1119.83 C910.54,1123.21 916.43,1124.76 922.81,1123.98 C929.171044,1123.31871 935.461821,1122.10071 941.61,1120.34 C950.374114,1117.75622 958.578246,1113.55749 965.8,1107.96 C968.033028,1106.38819 969.826605,1104.27101 971.01,1101.81 C971.85,1099.87 971.62,1098.81 970.01,1097.66 C967.71,1095.99 965.01,1095.58 962.31,1095.38 C946.64,1094.29 932.24,1098.45 918.72,1106.07 C916.132148,1107.65484 913.677399,1109.44741 911.38,1111.43 C908.59,1113.66 906.69,1116.61 904.81,1119.83 Z" id="Shape" fill="#000000" fill-rule="nonzero"></path>
            <path d="M1390.12,522.28 C1389.76751,522.992773 1389.51191,523.749478 1389.36,524.53 C1388.88,533.04 1386.59,541.23 1384.79,549.53 C1379.36,574.53 1371.79,598.98 1363.73,623.27 C1355.56,648.01 1347.42,672.76 1340.73,697.95 C1334.83646,719.710491 1330.13612,741.776704 1326.65,764.05 C1325.03,774.64 1323.37,785.24 1322.35,795.89 C1320.89531,810.706401 1320.51432,825.608622 1321.21,840.48 C1321.5274,846.710725 1322.31632,852.908456 1323.57,859.02 C1323.91281,861.06294 1324.58845,863.035804 1325.57,864.86 C1327.82,868.77 1327.68,872.8 1325.82,876.86 C1325.41977,877.735429 1324.96901,878.586864 1324.47,879.41 C1310.62,901.8 1291.47,917.86 1266.74,927 C1264.8,927.71 1262.74,928.14 1260.74,928.68 C1256.95026,929.83758 1252.83677,928.588913 1250.33,925.52 C1245.16009,920.059159 1240.52556,914.115308 1236.49,907.77 C1230.32909,897.444565 1226.10326,886.081938 1224.02,874.24 C1222.44654,865.740254 1221.7429,857.102344 1221.92,848.46 C1221.98,844.95 1221.92,841.46 1221.73,837.91 C1221.6,835.69 1219.87,834.91 1217.97,836.17 C1217.18157,836.717357 1216.42686,837.311769 1215.71,837.95 C1165.28,878.84 1109.05,909.41 1048.25,931.8 C1037.92872,935.697214 1027.35431,938.887911 1016.6,941.35 C1004.55303,944.038784 992.157018,944.808262 979.87,943.63 C968.512185,942.70728 957.457787,939.499804 947.37,934.2 C926.63,922.96 914.83,905.55 911.79,882.13 C910.79,874.58 911.46,867.13 912.54,859.67 C918.13,821.2 934.8,787.88 959.73,758.43 C977.73,737.17 998.59,719.08 1021.31,703.08 C1043.07,687.77 1066.07,674.55 1089.72,662.43 C1117.06,648.43 1145.17,636.11 1173.46,624.18 C1193.65,615.67 1213.46,606.44 1233.22,596.89 C1244.20512,591.564083 1254.00629,584.082269 1262.04,574.89 C1272.04,563.556667 1276.04,550.376667 1274.04,535.35 C1273.8108,533.626934 1273.34298,531.944135 1272.65,530.35 C1270.23,524.85 1265.77,522.13 1259.93,521.51 C1258.5,521.36 1257.05,521.44 1255.61,521.38 C1251.72154,521.304203 1248.033,519.642377 1245.4,516.78 C1245.29,516.66 1245.19,516.54 1245.07,516.42 C1241.42,512.66 1240.63,512.5 1236.73,515.63 C1231.59,519.76 1225.56,520.94 1219.24,521.32 C1213.66,521.65 1208.05,521.77 1202.49,522.32 C1170.49,525.24 1142.1,536.92 1117.6,557.81 C1110.60141,563.921644 1104.43839,570.928585 1099.27,578.65 C1096.64333,582.47 1094.13667,586.373333 1091.75,590.36 C1086.59187,599.099009 1078.98004,606.130121 1069.86,610.58 C1054.72,618.12 1038.86,623.58 1022.08,625.73 C1012.56,626.96 1002.96,627.73 993.39,626.12 C989.768927,625.513159 986.198796,624.633997 982.71,623.49 C977.93,621.93 976.88,619.9 978.55,615.09 C980.48,609.51 982.27,603.77 985.09,598.63 C1000.4,570.78 1017.91,544.42 1040.15,521.54 C1077.76,482.84 1122.15,454.96 1173.81,438.94 C1186.63,434.94 1199.59,431.44 1212.46,427.6 C1224.46,424.03 1233.71,428.31 1241.53,437.16 C1242.53,438.34 1243.53,439.64 1244.6,441.06 C1245.22893,440.450428 1245.82319,439.806084 1246.38,439.13 C1249.75,434.41 1253.96,430.48 1258.05,426.43 C1260.76797,423.638313 1264.57198,422.176635 1268.46,422.43 C1272.61,422.6 1276.77,422.73 1280.93,422.88 C1286.52,423.09 1292.12,423.14 1297.71,423.52 C1314.34692,424.508912 1330.70825,428.225093 1346.14,434.52 C1368.68,443.86 1382.88,460.52 1388.5,484.34 C1388.87,485.89 1388.93,487.5 1389.25,489.06 C1389.48259,489.957892 1389.7732,490.839745 1390.12,491.7 L1390.12,522.28 Z M1240.75,657.28 C1239.77987,657.498983 1238.83488,657.81733 1237.93,658.23 C1234.93,660.06 1231.93,661.93 1229.04,663.91 C1224.05877,667.391102 1218.8355,670.51236 1213.41,673.25 C1186.60333,686.476667 1159.80333,699.73 1133.01,713.01 C1118.67,720.11 1104.57,727.66 1091.3,736.64 C1078.38,745.39 1066.53,755.35 1056.87,767.7 C1048.11,778.88 1041.3,791.12 1037.34,804.83 C1035.14212,812.210372 1034.32843,819.933638 1034.94,827.61 C1035.58,835.17 1039.34,840.51 1046.6,843.1 C1048.70426,843.848115 1050.85988,844.443002 1053.05,844.88 C1060.93,846.44 1068.66,845.31 1076.3,843.28 C1089.25373,839.686856 1101.7396,834.581747 1113.5,828.07 C1127.78665,820.175857 1141.45863,811.2172 1154.4,801.27 C1183.56776,779.019757 1206.25194,749.371502 1220.1,715.4 C1227.1,697.91 1233.63,680.19 1240.34,662.56 C1240.73623,661.516251 1241.02114,660.433583 1241.19,659.33 C1241.1501,658.624797 1241.00169,657.929965 1240.75,657.27 L1240.75,657.28 Z M1281.45,458.99 C1281.15,456.36 1280.87,452.99 1280.39,449.7 C1279.67299,443.640011 1277.4825,437.847901 1274.01,432.83 C1270.19,427.5 1266.43,426.98 1261.73,431.63 C1258.45,434.88 1255.62,438.58 1252.66,442.14 C1251.04724,444.170858 1250.32573,446.768301 1250.66,449.34 C1250.81,451.08 1251.23,452.8 1251.55,454.52 C1252.39,459.07 1253.36,463.6 1254.07,468.17 C1255.81,479.43 1253.73,490.11 1248.92,500.33 C1248.44,501.33 1247.84,502.33 1247.45,503.33 C1246.51504,505.434086 1246.82308,507.883006 1248.25,509.69 C1249.19644,510.970835 1250.29066,512.13555 1251.51,513.16 C1253.90569,515.232658 1257.40289,515.413903 1260,513.6 C1261.60374,512.559606 1263.0688,511.319679 1264.36,509.91 C1269.74,504.26 1273.36,497.53 1275.98,490.24 C1279.54,480.37 1280.7,470.07 1281.45,458.98 L1281.45,458.99 Z M1318.16,871.51 C1317.6062,871.36808 1317.04045,871.277695 1316.47,871.24 C1312.48253,871.564044 1308.60491,872.707923 1305.08,874.6 C1300.73,876.96 1296.37,879.3 1292.21,881.95 C1282.61306,888.011514 1274.03397,895.551116 1266.79,904.29 C1263.77492,907.806345 1261.23948,911.707015 1259.25,915.89 C1258.61,917.3 1257.69,918.65 1257.98,920.63 C1259.24546,920.602548 1260.50794,920.495671 1261.76,920.31 C1266.45456,919.344131 1270.97136,917.657501 1275.15,915.31 C1283.52697,910.668103 1291.42817,905.215303 1298.74,899.03 C1303.48873,894.996918 1307.77498,890.449057 1311.52,885.47 C1314.07855,882.19686 1316.14071,878.564496 1317.64,874.69 C1317.9157,873.645902 1318.08984,872.577603 1318.16,871.5 L1318.16,871.51 Z" id="Shape" fill="#000000" fill-rule="nonzero"></path>
            <path d="M0.96,743.08 C2.55,742.36 2.58,740.86 2.8,739.44 C4.20085924,730.742794 7.01109607,722.332349 11.12,714.54 C15.4808961,706.13389 21.4744524,698.68189 28.75,692.62 C34.7616659,687.491971 42.1270894,684.210347 49.96,683.17 C56.13,682.35 61.86,683.58 66.67,687.49 C72.08,691.89 78.16,694.97 84.46,697.77 C104.091544,706.358808 124.329763,713.488142 145.01,719.1 C164.1,724.38 183.32,729.21 202.45,734.38 C227.31,741.1 252.45,746.38 277.82,750.94 C298.11,754.59 318.37,758.43 338.68,761.94 C353.48,764.51 368.35,766.72 383.19,769.04 C396.93,771.193333 410.676667,773.3 424.43,775.36 C436.76,777.19 449.12,778.84 461.43,780.65 C465.54,781.25 469.62,782.08 473.7,782.86 C474.77,783.06 475.81,783.44 477.03,783.78 C477.096834,784.444992 477.096834,785.115008 477.03,785.78 C472.91,803.7 468.72,821.6 462.49,838.93 C458.58,849.78 454.06,860.36 447.76,870.08 C447.32,870.75 446.92,871.45 446.49,872.08 C444.856838,874.74225 441.848781,876.240457 438.74,875.94 C437.300296,875.865044 435.86715,875.69467 434.45,875.43 L391.88,868.33 C377.22,865.9 362.54,863.56 347.88,861.04 C328.66,857.74 309.41,854.61 290.28,850.88 C261.42,845.25 232.62,839.29 203.85,833.23 C169.29,825.94 134.85,818.1 100.85,808.35 C74.41,800.76 48.43,791.83 22.72,782.05 C11.37,777.73 5.16,769.8 2.95,758.23 C2.62,756.53 2.8,754.63 0.95,753.6 L0.96,743.08 Z M8.66,747.55 C8.58,755.3 10.43,761.89 13.49,766.46 C17.58,772.55 23.67,774.73 30.62,772.46 C35.5184082,770.870488 40.05266,768.324645 43.96,764.97 C47.6073953,761.841337 50.9095273,758.331355 53.81,754.5 C61.6,744.12 65.57,732.31 67.35,719.57 C68.35,712.66 66.89,706.2 64.54,699.88 C61.38,691.36 53.9,689.69 48.05,690.63 C42.6392295,691.483077 37.5806996,693.85112 33.46,697.46 C17.7,711.07 9.96,728.54 8.7,747.55 L8.66,747.55 Z" id="Shape" fill="#000000" fill-rule="nonzero"></path>
            <path d="M223.71,730.91 C224.495334,728.710651 225.682104,726.676188 227.21,724.91 C235.049329,714.793383 243.435142,705.11231 252.33,695.91 C289.7,657.22 334.21,629.74 384.67,611.6 C409.033687,602.768665 434.22879,596.426335 459.87,592.67 C477.09,590.19 494.31,590.3 511.37,594.29 C514.01,594.91 516.65,595.59 519.23,596.44 C524.1,598.03 527.16,601.12 527.08,606.6 C526.894681,608.406897 527.52963,610.201639 528.81,611.49 C531.3,610.99 533.53,609.7 535.91,608.83 C537.978271,607.98012 540.116259,607.310953 542.3,606.83 C546.757746,606.011638 551.360619,606.873787 555.22,609.25 C557.126395,610.420792 558.959783,611.706501 560.71,613.1 C584.96,632.26 600.31,657.1 607.71,687 C612.371774,706.325224 613.489869,726.335734 611.01,746.06 C608.596752,765.292853 603.768693,784.144792 596.64,802.17 C586.473092,828.592011 574.40482,854.24252 560.53,878.92 C549.100004,898.933699 535.993023,917.941832 521.35,935.74 C501.74,959.87 480.71,982.65 456.97,1002.81 C427.77,1027.62 395.97,1048.2 360.55,1063.15 C336.233647,1073.44649 310.720822,1080.64948 284.61,1084.59 C271.795164,1086.57471 258.811072,1087.24486 245.86,1086.59 C232.418692,1085.99208 219.132989,1083.46628 206.41,1079.09 C183.143333,1070.91 165.25,1056.19667 152.73,1034.95 C145.520462,1022.47389 140.212063,1008.99224 136.98,994.95 C132.45,976.26 131.49,957.34 133.1,938.24 C135.65,908.04 143.52,879.12 154.1,850.86 C155.51,847.12 156.98,843.4 158.44,839.68 C158.85,838.68 159.28,837.6 159.79,836.61 C161.26,833.75 162.45,833.1 165.56,833.61 C168.87,834.2 172.14,834.93 175.43,835.61 C202.343333,841.216667 229.253333,846.833333 256.16,852.46 C258.665105,852.957946 261.14194,853.588838 263.58,854.35 C265.49,854.97 266.04,856.01 265.86,858.05 C265.703625,859.316915 265.452929,860.570396 265.11,861.8 C262.67,871.57 260.11,881.31 257.76,891.1 C254.5,904.85 252.52,918.76 253.45,932.94 C253.889014,941.423816 255.762186,949.771942 258.99,957.63 C265.43,972.9 276.81,981.78 293.26,984.19 C299.925383,985.079549 306.673128,985.170191 313.36,984.46 C336.84,982.31 357.9,973.46 377.66,961.1 C390.931507,952.703871 403.056264,942.619516 413.73,931.1 C442.39,900.51 463.55,865.48 475.65,825.21 C480.08443,810.679513 483.644144,795.896351 486.31,780.94 C489.196355,765.319741 489.002727,749.286001 485.74,733.74 C484.26,726.99 481.45,720.74 478.92,714.3 C475.92,706.83 475.92,706.82 468.82,702.98 C455.571389,695.587596 440.29033,692.669569 425.25,694.66 C389.47,699.38 358.82,714.66 333.19,740.09 C332.63,740.65 332.07,741.23 331.52,741.81 C325.36,748.35 317.86,750.25 309.19,748.4 C301.53,746.76 293.863333,745.19 286.19,743.69 C268.47,740.216667 250.74,736.783333 233,733.39 C231.27,733.05 229.52,732.79 227.83,732.39 C226.5,732.06 225.22,731.47 223.71,730.91 Z M551.13,625.98 C550.75,624.3 550.32,621.78 549.61,619.35 C549.124518,617.394811 547.321955,616.057561 545.31,616.16 C543.40495,616.163976 541.511018,616.450424 539.69,617.01 C535.316877,618.59729 531.38015,621.194365 528.2,624.59 C525.911947,626.845843 524.256699,629.663215 523.4,632.76 C522.77,635.06 522.08,637.36 521.34,639.63 C514.26,661.46 503.74,681.36 488.34,698.51 C487.760116,699.05898 487.24965,699.676913 486.82,700.35 C486.085218,701.575703 485.535931,702.903428 485.19,704.29 C484.19,709.95 488.99,713.98 494.38,712.11 C495.418472,711.702762 496.421829,711.211117 497.38,710.64 C503.181464,707.568109 508.559716,703.756273 513.38,699.3 C528.934655,684.677142 540.54078,666.359829 547.12,646.05 C549.16163,639.520371 550.505797,632.792832 551.13,625.98 Z" id="Shape" fill="#000000" fill-rule="nonzero"></path>
            <path d="M904.81,1119.83 C906.69,1116.61 908.59,1113.66 911.36,1111.43 C913.657399,1109.44741 916.112148,1107.65484 918.7,1106.07 C932.22,1098.45 946.62,1094.29 962.29,1095.38 C965.04,1095.58 967.69,1095.99 969.99,1097.66 C971.63,1098.86 971.86,1099.87 970.99,1101.81 C969.806605,1104.27101 968.013028,1106.38819 965.78,1107.96 C958.558246,1113.55749 950.354114,1117.75622 941.59,1120.34 C935.441821,1122.10071 929.151044,1123.31871 922.79,1123.98 C916.43,1124.76 910.54,1123.17 904.81,1119.83 Z" id="Path" fill="#FFFFFF"></path>
            <path d="M1240.75,657.27 C1240.99576,657.910941 1241.14408,658.585095 1241.19,659.27 C1241.02114,660.373583 1240.73623,661.456251 1240.34,662.5 C1233.63,680.13 1227.14,697.85 1220.1,715.34 C1206.25194,749.311502 1183.56776,778.959757 1154.4,801.21 C1141.45863,811.1572 1127.78665,820.115857 1113.5,828.01 C1101.7396,834.521747 1089.25373,839.626856 1076.3,843.22 C1068.66,845.22 1060.93,846.38 1053.05,844.82 C1050.85988,844.383002 1048.70426,843.788115 1046.6,843.04 C1039.34,840.45 1035.6,835.11 1034.94,827.55 C1034.32843,819.873638 1035.14212,812.150372 1037.34,804.77 C1041.34,791.06 1048.11,778.77 1056.87,767.64 C1066.53,755.29 1078.38,745.33 1091.3,736.58 C1104.57,727.58 1118.67,720.05 1133.01,712.95 C1159.81,699.703333 1186.61,686.45 1213.41,673.19 C1218.8355,670.45236 1224.05877,667.331102 1229.04,663.85 C1231.94,661.85 1234.93,660 1237.93,658.17 C1238.83679,657.774454 1239.78172,657.472878 1240.75,657.27 Z" id="Path" fill="#FFFFFF"></path>
            <path d="M1281.45,458.98 C1280.7,470.07 1279.54,480.37 1275.95,490.24 C1273.29,497.53 1269.71,504.24 1264.33,509.91 C1263.0388,511.319679 1261.57374,512.559606 1259.97,513.6 C1257.37289,515.413903 1253.87569,515.232658 1251.48,513.16 C1250.26066,512.13555 1249.16644,510.970835 1248.22,509.69 C1246.79308,507.883006 1246.48504,505.434086 1247.42,503.33 C1247.81,502.33 1248.42,501.33 1248.89,500.33 C1253.7,490.11 1255.78,479.43 1254.04,468.17 C1253.33,463.6 1252.36,459.07 1251.52,454.52 C1251.2,452.8 1250.78,451.08 1250.63,449.34 C1250.29573,446.768301 1251.01724,444.170858 1252.63,442.14 C1255.63,438.58 1258.42,434.88 1261.7,431.63 C1266.4,426.98 1270.16,427.5 1273.98,432.83 C1277.4525,437.847901 1279.64299,443.640011 1280.36,449.7 C1280.87,453 1281.15,456.35 1281.45,458.98 Z" id="Path" fill="#FFFFFF"></path>
            <path d="M1318.16,871.5 C1318.0892,872.574241 1317.91506,873.639161 1317.64,874.68 C1316.14071,878.554496 1314.07855,882.18686 1311.52,885.46 C1307.77498,890.439057 1303.48873,894.986918 1298.74,899.02 C1291.42817,905.205303 1283.52697,910.658103 1275.15,915.3 C1270.97136,917.647501 1266.45456,919.334131 1261.76,920.3 C1260.50794,920.485671 1259.24546,920.592548 1257.98,920.62 C1257.69,918.62 1258.61,917.29 1259.25,915.88 C1261.23948,911.697015 1263.77492,907.796345 1266.79,904.28 C1274.03397,895.541116 1282.61306,888.001514 1292.21,881.94 C1296.37,879.29 1300.73,876.94 1305.08,874.59 C1308.60491,872.697923 1312.48253,871.554044 1316.47,871.23 C1317.04045,871.267695 1317.6062,871.35808 1318.16,871.5 Z" id="Path" fill="#FFFFFF"></path>
            <path d="M8.7,747.55 C9.92,728.55 17.7,711.07 33.48,697.46 C37.6006996,693.85112 42.6592295,691.483077 48.07,690.63 C53.92,689.69 61.4,691.36 64.56,699.88 C66.91,706.2 68.34,712.66 67.37,719.57 C65.59,732.31 61.62,744.12 53.83,754.5 C50.923256,758.332387 47.6143831,761.842407 43.96,764.97 C40.0551835,768.308067 35.5281605,770.840073 30.64,772.42 C23.69,774.73 17.64,772.55 13.51,766.42 C10.47,761.89 8.62,755.3 8.7,747.55 Z" id="Path" fill="#FFFFFF"></path>
            <path d="M551.13,625.98 C550.509053,632.792469 549.168239,639.520001 547.13,646.05 C540.55078,666.359829 528.944655,684.677142 513.39,699.3 C508.569716,703.756273 503.191464,707.568109 497.39,710.64 C496.431829,711.211117 495.428472,711.702762 494.39,712.11 C489,713.98 484.22,709.95 485.2,704.29 C485.545931,702.903428 486.095218,701.575703 486.83,700.35 C487.25965,699.676913 487.770116,699.05898 488.35,698.51 C503.77,681.36 514.29,661.46 521.35,639.63 C522.09,637.36 522.78,635.06 523.41,632.76 C524.266699,629.663215 525.921947,626.845843 528.21,624.59 C531.39015,621.194365 535.326877,618.59729 539.7,617.01 C541.521018,616.450424 543.41495,616.163976 545.32,616.16 C547.331955,616.057561 549.134518,617.394811 549.62,619.35 C550.32,621.78 550.75,624.3 551.13,625.98 Z" id="Path" fill="#FFFFFF"></path>
            <path d="M750.29,873.11 C725.17,883.59 699.15,889.44 672.56,892.94 C635,897.94 597.45,897.34 558.96,892.94 C560.26,890.16 560.96,888.36 561.89,886.75 C577.44,860.84 589.89,833.44 600.54,805.24 C604.27,795.42 604.26,795.52 614.81,796.24 C645.59,798.31 675.81,795.68 705.15,785.47 C711.44,783.28 711.58,783.35 714.15,789.07 C725.79,815.39 737.39,841.723333 748.95,868.07 C749.511016,869.717495 749.958727,871.401422 750.29,873.11 Z" id="Path" fill="#000000"></path>
            <path d="M969.8,1098.07 C969.11,1102.59 966,1105.17 962.9,1107.5 C952.53,1115.3 940.73,1119.77 927.98,1121.79 C921.98,1122.79 915.82,1123.79 909.76,1121.85 C907.56,1121.15 905.46,1120.16 902.26,1118.85 C904.41,1115.91 905.76,1113.49 907.65,1111.6 C913.65,1105.6 921.11,1101.86 928.97,1098.94 C938.97,1095.23 949.19,1093.22 959.89,1094.06 C963.4,1094.37 966.96,1094.55 969.8,1098.07 Z" id="Path" fill="#FFFFFF"></path>
            <path d="M1239.43,656.65 C1239.35846,657.880332 1239.16076,659.100064 1238.84,660.29 C1231.16,680.39 1224.32,700.88 1215.5,720.47 C1200.71113,753.606777 1177.42003,782.241954 1147.99,803.47 C1128.37,817.76 1107.99,830.71 1084.99,838.85 C1075.84,842.07 1066.55,844.77 1056.7,844.37 C1054.06625,844.301662 1051.4462,843.966617 1048.88,843.37 C1037.36,840.55 1032.72,834.58 1032.63,822.7 C1032.51,807.01 1038.04,792.96 1045.73,779.7 C1056.73,760.87 1072.41,746.62 1090.34,734.64 C1109.79,721.64 1130.87,711.73 1151.84,701.57 C1172.98667,691.303333 1194.02667,680.813333 1214.96,670.1 C1221.38,666.81 1227.16,662.27 1233.26,658.35 C1234.85,657.35 1236.57,656.51 1238.26,655.6 L1239.43,656.65 Z" id="Path" fill="#FFFFFF"></path>
            <path d="M1279.45,457.04 C1278.7,473.04 1276.34,486.44 1269.71,498.6 C1267.3186,503.022701 1264.2593,507.050055 1260.64,510.54 C1255.27,515.64 1249.97,514.42 1245.86,508.21 C1244.14,505.61 1244.53,503.38 1245.86,500.86 C1250.97557,491.325345 1253.21935,480.512853 1252.32,469.73 C1251.78208,463.856484 1250.71781,458.043139 1249.14,452.36 C1247.98,448 1247.96,444.05 1250.74,440.53 C1253.84,436.62 1256.89,432.53 1260.67,429.34 C1264.61,426.03 1268.51,426.61 1271.52,430.78 C1274.10102,434.301053 1276.02831,438.257254 1277.21,442.46 C1278.67,447.92 1278.96,453.67 1279.45,457.04 Z" id="Path" fill="#FFFFFF"></path>
            <path d="M1255.26,919.79 C1258.14,907.21 1275.73,888.79 1294.44,877.97 C1301.25,874.05 1308.08,869.71 1316.74,869.85 C1314.92,880.13 1302.39,895 1286.94,905.44 C1277.46,911.85 1268.08,918.67 1255.26,919.79 Z" id="Path" fill="#FFFFFF"></path>
            <path d="M549.11,624.47 C548.238048,634.921496 545.611277,645.151364 541.34,654.73 C534.257938,671.865368 523.441836,687.204691 509.68,699.63 C504.868392,703.757652 499.592933,707.311539 493.96,710.22 C489.71,712.53 486.15,711.52 484.44,708.91 C482.170971,705.474591 482.61729,700.919634 485.51,697.99 C503.44,678.44 514.68,655.35 521.81,629.99 C523.81,623.07 535.36,614.61 542.43,614.6 C545.22,614.6 547.14,615.73 547.88,618.41 C548.46,620.76 548.83,623.17 549.11,624.47 Z" id="Path" fill="#FFFFFF"></path>
            <path d="M65.96,712.6 C64.4,734.08 56.89,751.15 41.52,764.25 C37.760987,767.259627 33.5124067,769.600405 28.96,771.17 C21.58,773.91 14.96,771.17 10.89,764.43 C7.44080915,758.463807 5.99999256,751.547186 6.78,744.7 C8.3,728.04 14.61,713.22 26.25,700.96 C31.45,695.49 37.31,690.87 45.07,689.52 C53.91,687.98 60.26,691.41 63.16,699.88 C64.67,704.38 65.22,709.22 65.96,712.6 Z" id="Path" fill="#FFFFFF"></path>
        </g>
    </g>
</svg>