<?xml version="1.0" encoding="UTF-8"?>
<svg width="1390px" height="1132px" viewBox="0 0 1390 1132" version="1.1" xmlns="http://www.w3.org/2000/svg" xmlns:xlink="http://www.w3.org/1999/xlink">
    <!-- Generator: Sketch 52.5 (67469) - http://www.bohemiancoding.com/sketch -->
    <title>logo_black</title>
    <desc>Created with Sketch.</desc>
    <g id="Page-1" stroke="none" stroke-width="1" fill="none" fill-rule="evenodd">
        <g id="logo_black" transform="translate(-267.000000, -79.000000)">
            <rect id="Rectangle" x="0" y="0" width="1989" height="1486"></rect>
            <path d="M1101.86,897.35 C1100.22,894.41 1098.86,892.42 1097.94,890.28 C1084.88,861.19 1071.94,832.05 1058.79,802.99 C1057.18,799.44 1057.06,796.48 1059.11,793.09 C1077.37,762.87 1087.06,729.65 1092.95,695.15 C1097.10564,670.201634 1099.26581,644.961688 1099.41,619.67 C1099.8598,577.247894 1097.1221,534.851934 1091.22,492.84 C1087.13,463.9 1083.09,434.84 1077.02,406.31 C1066.19,355.31 1055.56,304.31 1041.18,254.18 C1034.56,231.12 1027.29,208.18 1014.35,187.72 C1011.35,182.95 1007.28,178.82 1003.52,174.57 C1002.29431,173.298419 1000.80654,172.308849 999.16,171.67 C992.73,169 987.35,169.49 984,176 C977.78,188.12 970.83,199.92 965.45,212.4 C950.79,246.4 942.94,282.22 940.18,319.1 C939.05,334.21 938.4,349.38 938.18,364.53 C937.73,392.71 940.18,420.74 943.8,448.67 C949.52,492.79 959.26,536.08 970.39,579.12 C988.67,649.76 1014.08,717.91 1042.06,785.12 C1059.72,827.56 1077.96,869.75 1098.7,910.8 C1130.84,974.41 1164.17,1037.38 1199.78,1099.12 C1211.65,1119.7 1223.78,1140.12 1235.91,1160.56 C1237.94595,1163.94893 1240.16594,1167.22383 1242.56,1170.37 C1246.78,1175.99 1247.1,1180.37 1242.84,1185.92 C1240.77885,1188.77969 1238.29752,1191.31159 1235.48,1193.43 C1218,1205.71 1198.76,1211.95 1177.17,1209.89 C1169.31,1209.14 1163.72,1205.44 1159.6,1198.72 C1136.45,1161.04 1114.1,1122.89 1093.38,1083.82 C1078.85333,1056.42 1064.61,1028.87333 1050.65,1001.18 C1042.55,985.08 1035.03,968.67 1027.65,952.18 C1013.35,920.05 999.65,887.64 985.19,855.58 C961.65,803.39 942.06,749.72 923.81,695.52 C903.01,633.78 885.36,571.15 872.41,507.29 C864.2,466.76 857.87,425.94 855.14,384.6 C853.42,358.66 852.87,332.73 854.55,306.82 C857.01,268.88 863.43,231.69 879.39,196.82 C893.06,166.9 909.05,138.31 931.02,113.56 C944.02,98.87 959.15,86.75 978.64,81.8 C988.87976,79.033606 999.70102,79.28712 1009.8,82.53 C1032.46,89.95 1049.14,105.24 1063.8,123.26 C1080.02,143.26 1091.74,166.02 1102.07,189.32 C1117.07,223.32 1131.07,257.73 1144.96,292.21 C1154.89,316.93 1161.18,342.86 1168.18,368.52 C1177.34,402.06 1185.18,435.9 1189.24,470.52 C1192.35,496.93 1195.09,523.36 1196.57,549.94 C1198.01,575.68 1197.98,601.38 1196.98,627.09 C1195.44,666.69 1191.24,706 1181.77,744.61 C1170.19,791.87 1152.28,836.25 1122.03,874.95 C1117.3,881.01 1112.12,886.72 1107.03,892.53 C1105.79,894 1104.23,895.17 1101.86,897.35 Z M1236.86,1177.9 C1234.01,1174.38 1230.46,1174.2 1226.95,1173.9 C1216.25,1173.06 1205.95,1175.07 1196.03,1178.78 C1188.17,1181.7 1180.72,1185.42 1174.71,1191.44 C1172.82,1193.33 1171.47,1195.75 1169.32,1198.69 C1172.52,1199.97 1174.62,1200.96 1176.82,1201.69 C1182.88,1203.63 1188.99,1202.59 1195.04,1201.63 C1207.79,1199.63 1219.59,1195.14 1229.96,1187.34 C1233,1185 1236.15,1182.42 1236.84,1177.9 L1236.86,1177.9 Z" id="Shape" fill="#000000" fill-rule="nonzero"></path>
            <path d="M1509.71,520.07 C1512.01,517 1513.02,515.34 1514.32,513.96 C1517.53142,510.38031 1520.92244,506.965918 1524.48,503.73 C1527.4,501.2 1531.13,500.68 1535.04,500.96 C1540.52,501.36 1546.04,501.53 1551.51,501.58 C1570.68399,501.662675 1589.69743,505.08029 1607.7,511.68 C1637.79,522.79 1653.7,546.6 1655.83,578.68 C1657.06,597.18 1652.73,614.95 1648.68,632.75 C1642.02,661.94 1632.48,690.25 1623.11,718.66 C1611.05,755.18 1600.33,792.13 1593.64,830.12 C1590.36,848.75 1587.28,867.41 1586.44,886.32 C1585.7,903 1585.04,919.74 1588.24,936.32 C1588.65,938.46 1588.83,940.9 1589.99,942.6 C1593.52,947.79 1592.49,952.89 1589.63,957.51 C1586.05034,963.5555 1581.9051,969.24768 1577.25,974.51 C1565.32,987.38 1551.45,997.88 1534.98,1004.27 C1518.81,1010.55 1518.33,1007.47 1510.1,997.94 C1495.26,980.77 1488.87,960.22 1487.19,938.01 C1486.72,931.66 1487.05,925.26 1486.96,918.89 C1486.96,917.39 1486.75,915.89 1486.64,914.58 C1483.64,912.95 1482.29,915.14 1480.64,916.44 C1453.64,938.1 1425.11,957.52 1394.48,973.7 C1362.55,990.58 1329.77,1005.7 1295.19,1016.26 C1274.37,1022.65 1252.98,1025.1 1231.4,1019.75 C1211.55,1014.83 1195.4,1004.47 1185.13,986.38 C1177.36,972.72 1175.13,957.77 1177.04,942.38 C1182.4,899.2 1201.57,862.5 1230.47,830.52 C1256.56,801.65 1287.66,779.06 1320.97,759.52 C1358.78,737.33 1398.78,719.52 1439.14,702.52 C1458.97,694.16 1478.5,685.02 1497.91,675.69 C1508.42579,670.555371 1517.89905,663.516541 1525.85,654.93 C1536.25,643.87 1540.72,630.74 1539.41,615.66 C1538.52,605.43 1532.41,599.66 1522.13,599.85 C1516.79,599.95 1512.62,598.22 1509.48,594.14 C1507.18,591.14 1504.98,591.09 1502.33,593.48 C1495.98,599.24 1488.33,599.67 1480.16,599.88 C1444.33,600.82 1411.98,611.77 1384.16,634.83 C1372.66,644.36 1364.04,656.35 1356.51,669.06 C1351.43556,677.625541 1343.95562,684.510836 1335,688.86 C1312.19,700.37 1288.13,706.51 1262.48,705.08 C1257.4525,704.687517 1252.49752,703.642062 1247.74,701.97 C1242.86,700.37 1241.94,698.3 1243.65,693.37 C1245.81,687.17 1247.9,680.79 1251.13,675.12 C1268.13,645.2 1287.39,616.91 1312.38,592.85 C1347.16,559.35 1387.2,534.54 1433.04,519.33 C1448.25,514.33 1463.73,510 1479.19,505.73 C1489.33,502.92 1497.74,506.83 1504.9,513.89 C1506.46,515.37 1507.6,517.3 1509.71,520.07 Z M1506.47,736.48 L1505.28,735.43 C1503.62,736.34 1501.9,737.16 1500.28,738.18 C1494.18,742.1 1488.4,746.64 1481.98,749.93 C1461.06667,760.663333 1440.02333,771.14 1418.85,781.36 C1397.85,791.52 1376.8,801.44 1357.35,814.43 C1339.42,826.43 1323.69,840.66 1312.74,859.49 C1305.05,872.73 1299.52,886.78 1299.64,902.49 C1299.73,914.37 1304.37,920.34 1315.89,923.16 C1318.45592,923.75818 1321.07613,924.09325 1323.71,924.16 C1333.56,924.56 1342.85,921.86 1352,918.64 C1375,910.5 1395.38,897.55 1415,883.26 C1444.43266,862.03474 1467.72439,833.39879 1482.51,800.26 C1491.33,780.67 1498.17,760.18 1505.85,740.08 C1506.18162,738.904899 1506.38942,737.698335 1506.47,736.48 Z M1546.47,536.87 C1546,533.5 1545.69,527.75 1544.24,522.29 C1543.05851,518.087176 1541.1312,514.13094 1538.55,510.61 C1535.55,506.44 1531.64,505.86 1527.7,509.17 C1523.92,512.34 1520.87,516.45 1517.77,520.36 C1514.99,523.88 1515.01,527.83 1516.17,532.19 C1517.74997,537.872641 1518.81428,543.686183 1519.35,549.56 C1520.24935,560.342853 1518.00557,571.155345 1512.89,580.69 C1511.55,583.21 1511.16,585.44 1512.89,588.04 C1517,594.25 1522.3,595.47 1527.67,590.37 C1531.28799,586.878888 1534.34713,582.851749 1536.74,578.43 C1543.38,566.27 1545.74,552.92 1546.49,536.87 L1546.47,536.87 Z M1522.28,999.62 C1535.1,998.5 1544.48,991.68 1553.96,985.27 C1569.41,974.83 1581.96,959.96 1583.76,949.68 C1575.1,949.54 1568.27,953.88 1561.46,957.8 C1542.77,968.58 1525.18,987 1522.3,999.62 L1522.28,999.62 Z" id="Shape" fill="#000000" fill-rule="nonzero"></path>
            <path d="M488.41,809.43 C489.78,807.27 490.59,805.73 491.64,804.43 C528.013333,757.263333 573.606667,722.023333 628.42,698.71 C658.573413,685.803655 690.227443,676.73277 722.64,671.71 C741.24,668.9 759.86,668.86 778.28,673.46 C779.77,673.83 781.28,674.35 782.72,674.72 C788.78,676.22 792.45,679.55 792.03,686.31 C791.95,687.48 792.69,688.7 793.3,690.68 C796.24,689.48 798.84,688.51 801.36,687.36 C809.36,683.71 816.57,684.81 823.57,690.16 C850.66,710.84 866.94,738.16 873.87,771.31 C879.05,796.03 877.79,820.77 872.41,845.31 C867.34,868.38 858.27,890.15 848.62,911.58 C841.49,927.4 833.71,942.99 825.14,958.07 C807.57,988.98 785.56,1016.71 761.61,1042.91 C735.2,1071.81 705.68,1096.99 672.28,1117.55 C637.07,1139.22 599.28,1154.29 558.55,1161.65 C533.28,1166.21 507.93,1167.27 482.65,1161.01 C447.05,1152.2 423.13,1130.21 409.43,1096.59 C398.43,1069.52 395.49,1041.44 398.54,1012.49 C401.97,979.81 411.29,948.77 423.48,918.49 C426.31,911.44 426.54,911.49 433.67,912.94 L522.76,931.51 C523.62,931.69 524.48,931.85 525.34,932.06 C531.34,933.49 531.7,934.06 530.18,940.21 C527.1,952.57 523.52,964.83 521.1,977.32 C517.74,994.68 516.49,1012.22 521.53,1029.57 C527.84,1051.32 542.87,1062.94 565.39,1063.57 C588.44,1064.26 609.74,1057.73 629.9,1047.26 C655.31,1034.07 675.9,1015.12 693.64,992.82 C718.64,961.34 736.32,926.36 745.24,887.02 C748.24,873.73 752.33,860.68 752.94,846.94 C753.58,832.6 753.57,818.32 748.52,804.59 C746.34,798.643333 744.006667,792.746667 741.52,786.9 C741.08,785.9 739.75,785.12 738.7,784.44 C718.91,771.73 697.65,770.31 675.3,775.78 C645.06,783.19 618.68,797.58 597.03,819.86 C590.25,826.86 583.93,829.04 574.47,827.02 C547.18,821.2 519.7,816.22 492.3,810.88 C490.974912,810.476639 489.675807,809.992397 488.41,809.43 Z M816.15,704.3 C815.87,702.96 815.5,700.59 814.87,698.3 C814.13,695.62 812.21,694.49 809.42,694.49 C802.35,694.49 790.75,702.96 788.8,709.88 C781.67,735.19 770.43,758.28 752.5,777.88 C749.60729,780.809634 749.160971,785.364591 751.43,788.8 C753.14,791.41 756.7,792.42 760.95,790.11 C766.60088,787.205743 771.89337,783.651685 776.72,779.52 C790.48158,767.094467 801.29764,751.755205 808.38,734.62 C812.65743,725.022475 815.28432,714.771843 816.15,704.3 Z" id="Shape" fill="#000000" fill-rule="nonzero"></path>
            <path d="M742.45,862.34 C739.95,872.77 737.95,881.98 735.51,891.08 C731,907.87 725.76,924.42 717.78,939.95 C715.98,943.46 713.78,946.73 711.78,950.16 C709.47,954.16 706,955.09 701.66,954.36 C668.72,948.86 635.77,943.39333 602.81,937.96 C549,929.16 495.69,917.78 442.47,906.06 C395.25,895.66 348.47,883.3 303.1,866.36 C297.34,864.21 291.6,861.98 285.86,859.77 C277.24,856.45 271.86,850.19 269.23,841.44 C266.18,831.44 266.69,821.44 269.23,811.51 C273.23,796 280.8,782.6 293,772 C298.45881,767.156835 305.07574,763.805313 312.21,762.27 C319.99,760.6 326.91,761.96 333.13,767.27 C336.17539,769.784782 339.53738,771.889387 343.13,773.53 C367.65,785.15 393.44,793.28 419.5,800.53 C437.29,805.46 455.27,809.69 473.09,814.53 C507.52,823.78 542.68,829.53 577.66,836.03 C598.17,839.85 618.79,843.13 639.41,846.38 C664.58,850.38 689.8,854.06 715,857.84 C720.21,858.62 725.47,859.14 730.67,859.96 C734.23,860.49 737.8,861.38 742.45,862.34 Z M333,792.43 C332.28,789.05 331.73,784.21 330.19,779.71 C327.29,771.24 320.94,767.81 312.1,769.35 C304.34,770.7 298.48,775.35 293.28,780.79 C281.64,793.05 275.33,807.87 273.81,824.53 C273.02856,831.37725 274.469469,838.29432 277.92,844.26 C281.92,851.01 288.61,853.74 295.99,851 C300.545923,849.43145 304.797963,847.09063 308.56,844.08 C323.91,831 331.42,813.91 333,792.43 Z" id="Shape" fill="#000000" fill-rule="nonzero"></path>
            <path d="M1017.33,952.94 C992.21,963.42 966.19,969.27 939.6,972.77 C902.04,977.77 864.49,977.17 826,972.77 C827.3,969.99 828,968.19 828.93,966.58 C844.48,940.67 856.93,913.27 867.58,885.07 C871.31,875.25 871.3,875.35 881.85,876.07 C912.63,878.14 942.85,875.51 972.19,865.3 C978.48,863.11 978.62,863.18 981.19,868.9 C992.83,895.22 1004.43,921.55333 1015.99,947.9 C1016.54827,949.54832 1016.99594,951.23206 1017.33,952.94 Z" id="Path" fill="#000000"></path>
            <path d="M1236.84,1177.9 C1236.15,1182.42 1233.04,1185 1229.94,1187.33 C1219.57,1195.13 1207.77,1199.6 1195.02,1201.62 C1189.02,1202.62 1182.86,1203.62 1176.8,1201.68 C1174.6,1200.98 1172.5,1199.99 1169.3,1198.68 C1171.45,1195.74 1172.8,1193.32 1174.69,1191.43 C1180.69,1185.43 1188.15,1181.69 1196.01,1178.77 C1206.01,1175.06 1216.23,1173.05 1226.93,1173.89 C1230.44,1174.2 1234,1174.38 1236.84,1177.9 Z" id="Path" fill="#FFFFFF"></path>
            <path d="M1506.47,736.48 C1506.402,737.710718 1506.20424,738.930815 1505.88,740.12 C1498.2,760.22 1491.36,780.71 1482.54,800.3 C1467.75439,833.43879 1444.46266,862.07474 1415.03,883.3 C1395.41,897.59 1375.03,910.54 1352.03,918.68 C1342.88,921.9 1333.59,924.6 1323.74,924.2 C1321.10613,924.13325 1318.48592,923.79818 1315.92,923.2 C1304.4,920.38 1299.76,914.41 1299.67,902.53 C1299.55,886.84 1305.08,872.79 1312.77,859.53 C1323.77,840.7 1339.45,826.45 1357.38,814.47 C1376.83,801.47 1397.91,791.56 1418.88,781.4 C1440.03333,771.133333 1461.07333,760.643333 1482,749.93 C1488.42,746.64 1494.2,742.1 1500.3,738.18 C1501.89,737.18 1503.61,736.34 1505.3,735.43 L1506.47,736.48 Z" id="Path"></path>
            <path d="M1546.49,536.87 C1545.74,552.87 1543.38,566.27 1536.75,578.43 C1534.35713,582.851749 1531.29799,586.878888 1527.68,590.37 C1522.31,595.47 1517.01,594.25 1512.9,588.04 C1511.18,585.44 1511.57,583.21 1512.9,580.69 C1518.01557,571.155345 1520.25935,560.342853 1519.36,549.56 C1518.82428,543.686183 1517.75997,537.872641 1516.18,532.19 C1515.02,527.83 1515,523.88 1517.78,520.36 C1520.88,516.45 1523.93,512.36 1527.71,509.17 C1531.65,505.86 1535.55,506.44 1538.56,510.61 C1541.1412,514.13094 1543.06851,518.087176 1544.25,522.29 C1545.71,527.75 1546,533.5 1546.49,536.87 Z" id="Path" fill="#FFFFFF"></path>
            <path d="M1522.3,999.62 C1525.18,987.04 1542.77,968.62 1561.48,957.8 C1568.29,953.88 1575.12,949.54 1583.78,949.68 C1581.96,959.96 1569.43,974.83 1553.98,985.27 C1544.5,991.68 1535.12,998.5 1522.3,999.62 Z" id="Path" fill="#FFFFFF"></path>
            <path d="M816.15,704.3 C815.27767,714.751432 812.65092,724.981238 808.38,734.56 C801.29764,751.695205 790.48158,767.034467 776.72,779.46 C771.909,783.588447 766.63344,787.142399 761,790.05 C756.75,792.36 753.19,791.35 751.48,788.74 C749.210971,785.304591 749.65729,780.749634 752.55,777.82 C770.48,758.27 781.72,735.18 788.85,709.82 C790.85,702.9 802.4,694.44 809.47,694.43 C812.26,694.43 814.18,695.56 814.92,698.24 C815.5,700.59 815.87,703 816.15,704.3 Z" id="Path" fill="#FFFFFF"></path>
            <path d="M333,792.43 C331.44,813.91 323.93,830.98 308.56,844.08 C304.800987,847.08963 300.552407,849.43041 296,851 C288.62,853.74 282,851 277.93,844.26 C274.479469,838.29432 273.03856,831.37725 273.82,824.53 C275.34,807.87 281.65,793.05 293.29,780.79 C298.49,775.32 304.35,770.7 312.11,769.35 C320.95,767.81 327.3,771.24 330.2,779.71 C331.71,784.21 332.26,789.05 333,792.43 Z" id="Path" fill="#FFFFFF"></path>
        </g>
    </g>
</svg>