<?xml version="1.0" encoding="utf-8"?>
<!-- Generator: Adobe Illustrator 24.0.3, SVG Export Plug-In . SVG Version: 6.00 Build 0)  -->
<svg version="1.1" id="Calque_1" xmlns="http://www.w3.org/2000/svg" xmlns:xlink="http://www.w3.org/1999/xlink" x="0px" y="0px"
	 viewBox="0 0 551.3 426.5" style="enable-background:new 0 0 551.3 426.5;" xml:space="preserve">
<style type="text/css">
	.st0{fill:#FFFFFF;}
	.st1{font-family:'Avenir-Black';}
	.st2{font-size:48px;}
</style>
<title>OLAV2BLANC</title>
<path class="st0" d="M213.5,96.7c-0.1-6.1,0.2-12.2,0.8-18.3c0.3-3,0.8-6,1.2-9.1c0.8-5.3,2-10.5,3.5-15.7c1.2-4,2.7-7.9,4.4-11.6
	c2.4-5.1,5-10,7.9-14.8C234.4,22,238,17,242,12.5c2.9-3.2,6.2-6,9.9-8.3c1.6-1,3.3-1.7,5-2.4c0.6-0.2,1.2-0.4,1.8-0.6
	c1.1-0.4,2.3-0.7,3.5-0.6c0.5,0,1,0,1.4,0c3.9-0.4,7.4,0.8,10.9,2.4c3.2,1.5,6.1,3.5,8.7,5.9c1,0.9,2,1.8,3,2.8
	c1.5,1.4,2.9,3,4.1,4.7c0.8,1.2,1.7,2.3,2.6,3.5c0.5,0.6,1,1.3,1.4,1.9c1.8,2.9,3.5,5.9,5.1,9c1.3,2.4,2.5,4.8,3.7,7.3
	c0.9,1.8,1.7,3.6,2.5,5.4c2.5,5.9,5,11.8,7.5,17.6c1.5,3.6,3.1,7.2,4.5,10.9c1.2,3.2,2.4,6.5,3.5,9.7c0.7,1.9,1.3,3.8,1.9,5.7
	c1,3.2,1.9,6.5,2.8,9.7c1,3.5,2,7.1,3,10.6c0.6,2.2,1.2,4.5,1.7,6.8c0.7,2.9,1.4,5.8,2,8.6c0.8,3.8,1.6,7.5,2.2,11.3
	c0.8,5.1,1.4,10.1,2,15.2c0.6,5.4,1.2,10.8,1.5,16.2c0.4,6.9,0.8,13.7,0.8,20.6c0,0.3,0,0.6,0,1c-0.4,3.7-0.1,7.4-0.3,11
	c-0.3,6.7-0.6,13.4-1.4,20.1c-0.3,2.8-0.7,5.5-1.1,8.3c-0.3,1.8-0.6,3.6-0.9,5.4c-1.2,7-2.9,13.9-5,20.8c-2.6,8.4-6,16.5-10.3,24.2
	c-4.1,7.3-9.1,14.1-14.9,20.1c-0.2,0.2-0.5,0.4-0.7,0.6c-0.3,0.1-0.6,0.1-0.9-0.1c-0.3-0.5-0.7-1.1-0.9-1.7
	c-1.5-3.2-3.1-6.5-4.6-9.8c-3.5-7.7-6.9-15.5-10.2-23.3c-0.1-0.1-0.2-0.3-0.2-0.4c-0.2-0.5-0.2-1.1,0.1-1.6l1.8-3.1
	c2.2-3.8,4-7.9,5.5-12c2.2-6,3.8-12.2,5-18.5c1.7-9.4,2.7-19,2.9-28.6c0.1-2.8,0.1-5.6,0.2-8.4c0-0.3,0-0.6,0-1
	c-0.2-1.5-0.3-3-0.3-4.5c-0.2-4.2-0.4-8.5-0.7-12.7c-0.4-7.8-1.4-15.6-2.4-23.4c-0.4-3.2-0.9-6.5-1.4-9.7c-0.6-3.9-1.2-7.8-1.8-11.6
	c-0.3-1.7-0.6-3.5-1-5.2c-1.1-4.9-2.2-9.8-3.3-14.7c-0.5-2.1-1-4.2-1.4-6.3c-1.4-6.3-2.8-12.6-4.3-19c-1.2-5.4-2.6-10.7-4.1-16
	c-1.4-4.9-2.9-9.8-4.7-14.6c-1.1-3-2.4-5.9-3.9-8.8c-0.8-1.5-1.7-2.9-2.6-4.3c-0.9-1.4-2-2.7-3.4-3.7c-1-0.8-2.2-1.3-3.5-1.4
	c-1.1-0.1-2.1,0.4-2.7,1.3c-0.8,1.4-1.7,2.7-2.5,4.1c-2.7,4.7-5,9.7-6.8,14.8c-1.8,4.9-3.3,9.9-4.3,15c-0.2,1.2-0.5,2.3-0.8,3.5
	c-1.1,5.7-1.9,11.5-2.4,17.3c-0.7,8.4-0.8,16.8-0.3,25.2c0.3,6.4,1,12.8,1.7,19.1c0.5,4.5,1.3,9,2,13.5s1.6,9.3,2.7,13.9
	c0.6,2.4,1,4.9,1.6,7.3c1.2,5.1,2.4,10.1,3.9,15.1c1,3.4,1.8,6.8,2.7,10.2c0.7,2.5,1.4,4.9,2.2,7.4c1,3,2,6.1,3,9.1
	c1.5,4.3,3,8.6,4.5,12.9c1.4,3.9,2.8,7.8,4.3,11.7c1.3,3.4,2.6,6.9,4,10.3c1.7,4.2,3.5,8.4,5.2,12.7c0.8,2,1.6,4,2.4,6
	c0.8,1.8,1.6,3.6,2.4,5.5c2.7,6.1,5.5,12.3,8.2,18.4c1.8,4,3.7,8,5.6,11.9c0.9,1.9,2,3.6,2.9,5.5c2.2,4.5,4.4,8.9,6.7,13.3
	c0.6,1.3,1.4,2.5,2,3.8l10.6,19.9c4.4,8.3,8.9,16.5,13.6,24.6c3.7,6.5,7.6,13,11.4,19.5c1.7,2.9,3.4,5.8,5.2,8.7
	c0.6,1,1.3,2,2.1,2.9c1.2,1.2,1.4,3,0.6,4.4c-0.4,0.8-0.9,1.5-1.5,2.2c-1,1.1-2.2,2.1-3.5,2.9c-5.6,3.5-12.1,5.3-18.7,5
	c-1.2,0-2.4-0.3-3.5-0.7c-1.6-0.5-3-1.6-3.7-3.2c-2-3.2-4-6.4-5.9-9.6c-1.7-2.9-3.4-5.8-5.1-8.7c-2.4-4.1-4.8-8.2-7-12.3
	c-3.5-6.4-7-12.8-10.4-19.2c-3.7-7-7.3-14.1-10.8-21.1c-1.2-2.2-2.2-4.5-3.1-6.8c-0.3-0.7-0.7-1.4-1-2.2c-1.4-2.9-2.8-5.8-4.1-8.7
	c-0.2-0.4-0.3-0.7-0.5-1.1c-0.2-0.6-0.5-1.2-0.8-1.7c-0.7-1.3-1.3-2.6-1.9-3.9c-3.6-7.8-7-15.8-10.4-23.7c-0.8-2-1.7-4-2.4-6
	c-0.3-1-0.8-1.9-1.3-2.8c-0.6-1-1.1-2-1.5-3c-2.6-6.5-5.1-12.9-7.7-19.4c-3-7.5-5.7-15.1-8.4-22.7c-1.4-4.1-2.8-8.2-4.2-12.3
	c-1.5-4.6-3-9.3-4.5-13.9c-1.1-3.6-2.2-7.2-3.2-10.8s-2.1-7.2-3-10.9c-0.6-2.2-1.2-4.5-1.7-6.7c-1-3.9-2-7.8-2.9-11.6
	c-0.7-3-1.4-6.1-2-9.1c-0.6-2.9-1.2-5.8-1.8-8.7c-0.7-4-1.4-8-2.1-12.1c-0.3-1.5-0.5-3-0.8-4.5c-1-6.6-1.7-13.3-2.3-20
	C213.8,109,213.4,102.9,213.5,96.7z M334.2,409.5c1-0.1,2-0.3,3.1-0.4c3.2-0.4,6.2-1.3,9.1-2.7c1.7-0.8,3.2-1.7,4.7-2.9
	c0.8-0.6,1.5-1.4,2-2.3c0.3-0.5,0.1-1.2-0.4-1.5c-0.1,0-0.1-0.1-0.2-0.1c-0.9-0.4-2-0.7-3-0.7c-3.2-0.2-6.4,0.3-9.4,1.2
	c-2.6,0.8-5.1,1.9-7.4,3.4c-1,0.6-1.9,1.4-2.8,2.3c-0.4,0.5-0.8,1-1,1.6c-0.1,0.3,0,0.6,0.2,0.9c0.4,0.3,0.8,0.5,1.2,0.7
	C331.6,409.3,332.9,409.5,334.2,409.5z"/>
<path class="st0" d="M444,309.2V306c0-0.3,0-0.6,0-1c0-0.5-0.1-0.8-0.4-0.8c-0.2,0-0.5,0.1-0.7,0.2c-0.8,0.6-1.6,1.3-2.4,1.9
	c-3.4,2.7-6.9,5.3-10.4,7.7c-0.9,0.6-1.8,1.4-2.7,2c-2.2,1.5-4.4,2.9-6.7,4.3c-7.5,4.6-15.3,8.7-23.3,12.4
	c-6.1,2.8-12.3,5.4-18.6,7.7c-5.8,2.1-11.9,3.4-18,3.6c-3.8,0.1-7.7-0.3-11.4-1.4c-3.2-1-6.3-2.5-8.9-4.5c-5.3-4-8.7-10.1-9.2-16.7
	c-0.4-3.3-0.2-6.7,0.4-10c1.9-10.3,6-20.2,12.1-28.7c4.2-5.9,9.1-11.4,14.5-16.3c6-5.3,12.4-10.2,19.1-14.4l0.4-0.3
	c5.6-3.7,11.4-7,17.5-10c4.1-2.1,8.3-4.2,12.5-6.1c4.8-2.2,9.7-4.3,14.5-6.4c5.4-2.3,10.9-4.6,16.3-7c3.4-1.5,6.7-3.1,9.9-4.9
	c2.7-1.5,5.3-3.3,7.7-5.3c2-1.7,3.6-3.6,4.9-5.8c1.6-2.9,2.4-6.2,2.2-9.5c0-0.9-0.2-1.7-0.5-2.6c-0.3-1.1-0.9-2.1-1.8-2.8
	c-0.9-0.9-2.1-1.3-3.3-1.1c-0.3,0-0.6,0-1,0c-1.5,0.1-2.9-0.4-3.9-1.5c-0.5-0.5-0.8-1-1.3-1.4c-0.2-0.2-0.6-0.3-0.9-0.1
	c-0.4,0.4-0.8,0.7-1.3,1c-1.7,1.4-3.8,2.1-6,2c-0.9,0-1.8,0-2.6-0.1c-1.6-0.1-3.2,0-4.8,0.3c-3.4,0.5-6.7,1.3-10,2.3
	c-2.8,0.8-5.5,1.8-8.1,3c-5.1,2.3-9.7,5.6-13.7,9.6c-2.4,2.5-4.5,5.3-6.3,8.2c-0.7,1.1-1.4,2.3-2.2,3.5c-0.7,1.1-1.6,2-2.6,2.8
	c-1.6,1.3-3.4,2.4-5.3,3.3c-3.9,1.9-8,3.3-12.2,4.2c-2.1,0.5-4.2,0.8-6.4,1.1c-0.4,0.1-0.8,0.1-1.2,0.1c-2.1,0-4.2,0-6.2-0.1
	c-1.8-0.1-3.5-0.5-5.1-1.2c-0.3-0.1-0.6-0.3-0.8-0.4c-0.5-0.3-0.8-1-0.7-1.6c0.3-1.7,0.9-3.4,1.6-5c1.7-3.5,3.6-6.9,5.8-10.2
	c1.7-2.7,3.5-5.4,5.3-8c1.9-2.7,4-5.4,6.3-7.9c6.5-7.5,14-14.1,22.2-19.6c4.9-3.3,10.1-6.3,15.4-8.8c5-2.4,10.3-4.5,15.6-6.1
	c3.3-1,6.6-2,9.9-2.7c0.9-0.2,1.9-0.5,2.7-0.8c1.2-0.5,2.5-0.7,3.8-0.7c0.5,0,1,0,1.4,0s0.8,0.1,1.1,0.3c2.1,0.9,4,2.4,5.5,4.2
	c0.1,0.2,0.3,0.4,0.5,0.5c0.1,0.1,0.3,0,0.4,0c0.2-0.2,0.4-0.5,0.6-0.7c0.6-0.8,1.2-1.7,1.8-2.5c0.5-0.6,1.1-1.1,1.7-1.6
	c1.4-1.3,3.3-1.8,5.1-1.4c1.3,0.2,2.7,0.3,4.1,0.2c6.3-0.1,12.6,0.8,18.7,2.6c2.7,0.8,5.3,1.8,7.8,3.2c5.5,3.2,9.7,8.3,11.5,14.4
	c1.5,4.7,1.9,9.6,1.4,14.5c-0.3,2.6-0.7,5.2-1.3,7.8c-1.4,6.7-3.1,13.4-5,20c-0.6,1.9-1.1,3.8-1.7,5.8c-0.1,0.4-0.2,0.8-0.4,1.1
	c-0.7,2-1.5,4-2.2,6.1c-0.7,1.8-1.3,3.6-1.9,5.4c-0.1,0.3-0.2,0.6-0.3,0.9c-0.5,2.3-1.1,4.5-1.9,6.7c-0.9,2.7-1.7,5.5-2.5,8.3
	c-0.6,2.3-1.3,4.6-1.9,6.9c-0.7,2.8-1.3,5.6-2,8.4c-0.4,1.6-0.7,3.3-1,4.9c-0.4,2.4-0.9,4.7-1.3,7.1c-0.3,1.5-0.5,3-0.7,4.5
	c-0.5,3-0.7,6-1,9.1c-0.5,5.3-0.5,10.7-0.2,16.1c0.1,1.9,0.4,3.8,0.8,5.7c0.1,0.5,0.3,1.1,0.6,1.6c0.8,1.3,0.9,3,0.2,4.3
	c-0.6,1.4-1.3,2.7-2.3,3.9c-1,1.4-2.2,2.8-3.4,4c-3.9,4-8.4,7.2-13.4,9.6c-1.4,0.6-2.8,1.1-4.3,1.4c-0.3,0.1-0.6,0.1-0.9,0.2
	c-1.2,0.2-2.4-0.2-3.2-1.1c-2.2-2.2-4.1-4.7-5.7-7.4c-1.4-2.5-2.5-5.2-3.3-8c-1-3.6-1.5-7.4-1.6-11.1L444,309.2L444,309.2z
	 M385.4,307.9c0.7,0,1.4-0.1,2.2-0.1s1.3-0.2,1.9-0.3c2.5-0.5,4.9-1.3,7.3-2.3c3.4-1.4,6.7-3,9.9-4.8c5.2-3,10.1-6.4,14.8-10.2
	c5-4,9.4-8.8,13.1-14c4.7-6.7,8.6-13.9,11.4-21.6c1.7-4.7,3.4-9.5,5.1-14.2c0.1-0.1,0.1-0.3,0.1-0.5c0-0.1-0.1-0.3-0.2-0.4h-0.2
	c-0.2,0.1-0.4,0.2-0.6,0.3c-3.7,2.7-7.6,5.1-11.6,7.2c-3.1,1.6-6.3,3.2-9.4,4.7c-5.1,2.5-10.3,4.8-15.4,7.3
	c-5.3,2.5-10.5,5.4-15.5,8.6c-4.5,2.8-8.5,6.2-12.1,10.1c-4.2,4.6-7.3,10.2-9,16.2c-0.5,1.6-0.7,3.3-0.8,5c-0.1,1.2,0,2.4,0.2,3.6
	c0.4,1.8,1.6,3.4,3.3,4.2c0.4,0.2,0.9,0.4,1.3,0.6C382.4,307.7,383.9,307.9,385.4,307.9L385.4,307.9z M465.7,167.3
	c0-1.9-0.2-3.8-0.7-5.6c-0.3-1.2-0.8-2.3-1.3-3.3c-0.4-0.6-0.8-1.2-1.4-1.6c-0.7-0.6-1.7-0.7-2.5-0.3c-0.7,0.3-1.3,0.7-1.8,1.2
	c-1.4,1.3-2.5,2.9-3.3,4.7c-0.3,0.5-0.3,1.1-0.2,1.6c0.1,0.4,0.1,0.8,0.3,1.2c1,2.8,1.4,5.7,1.3,8.7s-0.8,5.9-2.1,8.6
	c-0.2,0.4-0.4,0.9-0.7,1.3c-0.3,0.5-0.3,1.1,0,1.6c0.4,0.6,0.8,1.2,1.3,1.7c0.8,0.9,2.2,1.1,3.3,0.5c0.9-0.5,1.7-1.2,2.4-2
	c1-1.2,1.8-2.5,2.4-3.8C464.7,177,465.7,172.2,465.7,167.3L465.7,167.3z M457.8,335.5c0.2,0,0.4,0,0.5-0.1c2-0.5,4-1.3,5.8-2.4
	c3.1-1.7,5.9-3.8,8.5-6.2c1.7-1.5,3.3-3.2,4.7-5.1c0.6-0.9,1.2-1.9,1.8-2.8c0.1-0.3,0.3-0.6,0.3-0.9c0.1-0.4-0.1-0.8-0.5-1
	c-0.1,0-0.2,0-0.3,0l-0.7,0.1c-1.4,0.3-2.7,0.8-4,1.5c-5.2,2.6-9.9,6.2-13.7,10.7c-1.2,1.4-2.3,2.9-3.1,4.6
	c-0.1,0.3-0.2,0.6-0.3,0.9C456.8,335.2,457.2,335.6,457.8,335.5L457.8,335.5z"/>
<path class="st0" d="M172.7,257.8c-1.1-0.5-2.2-1.1-3.2-1.6c-4.5-2.5-9.7-3.6-14.8-2.9c-1.8,0.2-3.5,0.5-5.2,0.9
	c-4.5,1-8.9,2.6-13.1,4.6c-5.3,2.6-10.1,5.9-14.4,9.9c-1.4,1.3-2.8,2.7-4.1,4c-0.6,0.6-1.4,0.9-2.2,0.8c-1.3-0.2-2.5-0.2-3.8-0.5
	c-2.1-0.4-4.2-0.8-6.4-1.1c-1.9-0.3-3.8-0.7-5.7-1.1l-10.6-2.1c-2.6-0.5-5.2-1-7.8-1.6c-0.2-0.1-0.4-0.2-0.6-0.3
	c-0.2-0.1-0.3-0.4-0.2-0.6c0.2-0.4,0.5-0.8,0.8-1.2c1.5-1.9,3-3.7,4.6-5.6c3.7-4.4,7.7-8.5,12-12.4c6.1-5.4,12.8-10.2,19.8-14.2
	c5-2.8,10.1-5.3,15.4-7.4c5.2-2.2,10.5-4,15.9-5.4c2.3-0.6,4.6-1.3,7-1.9c5.7-1.5,11.6-2.3,17.5-2.5c4.7-0.2,9.5,0.4,14,1.7
	c0.5,0.1,0.9,0.3,1.4,0.5c1.5,0.3,2.5,1.6,2.4,3.1c0,0.3,0,0.6,0,1s0,0.5,0.1,0.7s0.5,0.6,0.7,0.5s0.7-0.3,1.1-0.5
	c0.9-0.4,1.8-0.7,2.7-1.1c1.4-0.4,2.9-0.5,4.3-0.1c0.4,0.1,0.7,0.3,1.1,0.5c4.1,2.7,7.7,6.1,10.6,10c1.8,2.4,3.5,5,4.8,7.7
	c2.1,4.2,3.6,8.7,4.5,13.3c1.4,7.3,1.4,14.8,0.2,22.2c-0.4,2.5-0.9,5-1.5,7.5c-0.3,1.3-0.7,2.6-1.3,3.9c-0.3,0.6-0.6,1.3-0.8,2
	c-1.1,3.5-2.4,7-3.8,10.3c-3,7.5-6.5,14.8-10.6,21.8c-1.1,2-2.3,4-3.8,5.8c-0.2,0.2-0.3,0.4-0.4,0.6c-2.7,4.5-5.8,8.9-9.1,12.9
	c-3.9,4.9-8.1,9.7-12.4,14.3c-6.5,6.9-13.7,13.2-21.4,18.8c-6.6,4.8-13.6,9-21,12.5c-6.4,3.1-13.1,5.5-20,7.3
	c-4.7,1.3-9.4,2.2-14.2,2.8c-5.7,0.8-11.5,0.8-17.2,0.1c-5.9-0.7-11.6-2.6-16.7-5.7c-5-3-9.1-7.2-12-12.1
	c-3.4-5.7-5.6-11.9-6.8-18.4c-1.3-7.7-1.3-15.5-0.1-23.2c0.9-6.2,2.4-12.3,4.2-18.2c1.3-4.1,2.7-8,4.3-12c0.1-0.4,0.3-0.7,0.5-1.1
	c0.6-1.4,0.8-1.6,2.6-1.3c4.1,0.9,8.1,1.7,12.2,2.6c2.9,0.6,5.8,1.1,8.7,1.7s6,1.3,8.9,1.9L95,311c0.4,0.1,0.8,0.2,1.1,0.4
	c0.2,0.1,0.3,0.3,0.4,0.6c0,0.5,0,1-0.2,1.4c-0.3,1-0.6,2-0.9,3c-1.4,4.4-2.4,9-3,13.6c-0.6,3.9-0.7,7.8-0.4,11.7
	c0.2,2.3,0.7,4.6,1.6,6.8c1.3,3.6,3.8,6.6,7.2,8.4c2.3,1.2,4.8,1.9,7.4,2c3.3,0.2,6.6-0.1,9.8-0.8c0.4-0.1,0.8-0.2,1.2-0.3
	c7.4-1.7,14.5-4.9,20.6-9.4c4.6-3.3,8.8-7.2,12.6-11.4c3.4-3.9,6.5-8.1,9.3-12.5c1.7-2.6,3.1-5.4,4.7-8.1c1.3-2.2,2.3-4.6,3.2-7
	c1.7-4.6,3.2-9.2,4.4-14c0.8-3.2,1.7-6.5,2.4-9.8c0.6-2.9,0.8-5.9,0.8-8.8c0-2.1-0.1-4.2-0.3-6.2c-0.4-2.7-1.1-5.3-2.1-7.9
	c-0.1-0.3-0.2-0.6-0.4-0.9c-0.8-1-1.2-2.3-1.3-3.5C172.8,258,172.7,257.9,172.7,257.8z M199.9,227.9c-0.1-0.6-0.1-1.3-0.3-1.9
	c-0.2-1.1-1.2-1.8-2.3-1.6c-0.1,0-0.1,0-0.2,0l-0.7,0.2c-1.7,0.6-3.2,1.4-4.6,2.6c-0.9,0.6-1.5,1.5-1.7,2.5
	c-0.4,1.5-0.9,3.1-1.4,4.6c-2.8,7.6-6.4,14.8-12.1,20.8c-0.6,0.6-0.9,1.4-0.7,2.2c0.1,0.4,0.1,0.8,0.2,1.2c0.3,0.9,1.3,1.5,2.2,1.4
	c1.2-0.2,2.3-0.7,3.3-1.3c1.4-0.9,2.8-1.9,4-3c5.9-5.6,10.4-12.6,12.9-20.3C199.4,232.8,199.8,230.3,199.9,227.9z"/>
<path class="st0" d="M18.4,248.7c2.1-0.1,4.1,0.6,5.6,2c0.9,0.9,2,1.6,3.2,2.1c5.2,2.4,10.6,4.5,16.1,6.3c4.2,1.4,8.4,2.7,12.6,3.9
	c4.8,1.4,9.6,2.6,14.4,3.8c1.1,0.3,2.2,0.5,3.3,0.8c1.7,0.3,3.3,0.8,4.8,1.5c0.2,0.1,0.5,0.2,0.7,0.2l8.7,1.7c1.6,0.3,3.3,0.7,4.9,1
	c3.1,0.6,6.3,1.3,9.4,1.9c3.4,0.6,6.8,1.2,10.1,1.8c1.8,0.3,3.6,0.8,5.4,1.1c0.4,0.1,0.8,0.2,1.2,0.2c2.8,0,5.4,0.7,8.1,1.1
	c4,0.6,7.9,1.3,11.9,1.9l4,0.6c4,0.6,8.1,1.2,12.1,1.9c3.8,0.6,7.6,1.2,11.4,1.6c1.9,0.2,3.8,0.6,5.7,0.9c0.3,0,0.6,0.1,0.9,0.3
	c0.2,0.1,0.3,0.4,0.3,0.6s0,0.5,0,0.7c-0.7,3-1.4,5.9-2.1,8.9c-1,3.9-2.2,7.8-3.6,11.7c-1,2.9-2.3,5.6-3.8,8.3c-0.6,1-1.3,2-2,3
	c-0.4,0.7-1.3,1-2.1,0.9c-1.3-0.2-2.7-0.3-4-0.5c-5.4-0.9-10.9-1.7-16.3-2.6c-3.7-0.6-7.4-1.3-11.1-1.9l-10.6-1.8
	c-1.6-0.3-3.1-0.6-4.7-0.9c-3.2-0.6-6.5-1.2-9.7-1.8s-6.3-1.2-9.4-1.9c-4.4-0.9-8.8-1.8-13.1-2.7l-19-3.9c-0.2,0-0.5-0.1-0.7-0.2
	c-2.6-0.8-5.2-1.5-7.9-2c-6.9-1.8-13.8-3.6-20.6-5.6c-6.1-1.8-12.1-3.7-18-5.9c-2.5-0.9-4.9-2-7.4-2.8c-2-0.8-3.8-2.2-4.9-4.1
	c-0.7-1.2-1.2-2.6-1.5-4c-0.5-2.3-0.5-4.6-0.2-6.9c0.7-5,2.7-9.7,5.9-13.7c1.4-1.8,3-3.3,4.8-4.6c1.7-1.2,3.7-2,5.7-2.4
	C17.4,248.8,18.1,248.8,18.4,248.7z M24,260.9c0.1-1.5-0.1-3.1-0.5-4.5c-0.3-1.1-0.8-2.1-1.5-3c-0.9-1.2-2.2-1.9-3.7-1.9
	c-1.4-0.1-2.9,0.3-4.1,0.9c-1.8,0.9-3.4,2.2-4.7,3.7c-3,3.3-5.2,7.4-6.2,11.7c-0.6,2.4-0.7,4.9-0.4,7.4c0.2,1.6,0.7,3.1,1.7,4.4
	c1.2,1.8,3.4,2.6,5.5,2c1.6-0.4,3-1,4.3-2c1.1-0.8,2.1-1.7,3-2.7c2.9-3.2,4.9-7.1,6-11.3C23.8,264.1,24,262.5,24,260.9z"/>
<path class="st0" d="M223.6,327.1c-2.9,0-7.3-0.1-11.7-0.5c-1.3-0.1-2.6-0.1-3.8-0.2s-2.7-0.3-4.1-0.4c-0.3-0.1-0.6-0.4-0.5-0.7
	c0-0.1,0-0.1,0.1-0.2c0.2-0.3,0.3-0.6,0.5-0.8c5.9-9.9,10.8-20.3,14.8-31.1c0.2-0.6,0.4-1.2,0.7-1.8c0.2-0.6,0.8-1.1,1.5-1
	c1.5,0,3,0.1,4.6,0.2c6.3,0.4,12.6,0.1,18.9-0.9c4.3-0.7,8.5-1.8,12.5-3.2c0.5-0.2,0.9-0.3,1.4-0.4c0.5-0.2,1,0,1.2,0.5
	s0.5,1,0.7,1.5c2.2,5.2,4.5,10.4,6.7,15.6c1.9,4.3,3.9,8.6,5.8,12.9c0.8,1.8,1.1,2.1-1.2,2.9c-4.9,1.9-10,3.4-15.2,4.5
	c-1.8,0.4-3.6,0.8-5.4,1.1c-3.8,0.6-7.6,1.1-11.4,1.5C234.8,326.9,229.9,327.1,223.6,327.1z"/>
<path class="st0" d="M240,16.2c0,0,23.1-36.4,49.8,0S240,16.2,240,16.2z"/>
<path class="st0" d="M77.2,393.9c0,0,65,26.7,123-68.7S107.1,384,107.1,384L77.2,393.9z"/>
<text transform="matrix(1 0 0 1 391.12 404.54)" class="st0 st1 st2">RADIO</text>
</svg>
