<svg width="1278px" height="271px" viewBox="0 0 1278 271" version="1.1" xmlns="http://www.w3.org/2000/svg" xmlns:xlink="http://www.w3.org/1999/xlink">
    <!-- Generator: Sketch 50.2 (55047) - http://www.bohemiancoding.com/sketch -->
    <desc>Created with Sketch.</desc>
    <defs>
        <linearGradient x1="50%" y1="0%" x2="50%" y2="127.506996%" id="linearGradient-1">
            <stop stop-color="#C6E3FF" offset="0%"></stop>
            <stop stop-color="#FFFFFF" stop-opacity="0" offset="100%"></stop>
        </linearGradient>
    </defs>
    <g id="iconAnim" stroke="none" stroke-width="1" fill="none" fill-rule="evenodd">
        <g id="Desktop-HD" transform="translate(-162.000000, -694.000000)" fill="url(#linearGradient-1)">
            <path d="M193.860393,853.25 L174.169587,863.602069 L177.930197,841.676035 L162,826.147931 L184.01499,822.948965 L193.860393,803 L203.705796,822.948965 L225.720787,826.147931 L209.79059,841.676035 L213.551199,863.602069 L193.860393,853.25 Z M289.860393,920.25 L270.169587,930.602069 L273.930197,908.676035 L258,893.147931 L280.01499,889.948965 L289.860393,870 L299.705796,889.948965 L321.720787,893.147931 L305.79059,908.676035 L309.551199,930.602069 L289.860393,920.25 Z M357.860393,836.75 L344.635225,843.702882 L347.161007,828.976441 L336.461622,818.547118 L351.247809,816.398559 L357.860393,803 L364.472977,816.398559 L379.259165,818.547118 L368.559779,828.976441 L371.085561,843.702882 L357.860393,836.75 Z M529.860393,954.25 L510.169587,964.602069 L513.930197,942.676035 L498,927.147931 L520.01499,923.948965 L529.860393,904 L539.705796,923.948965 L561.720787,927.147931 L545.79059,942.676035 L549.551199,964.602069 L529.860393,954.25 Z M462.860393,788.25 L443.169587,798.602069 L446.930197,776.676035 L431,761.147931 L453.01499,757.948965 L462.860393,738 L472.705796,757.948965 L494.720787,761.147931 L478.79059,776.676035 L482.551199,798.602069 L462.860393,788.25 Z M743.860393,772.75 L729.459655,780.320916 L732.209951,764.285458 L720.559509,752.929084 L736.660024,750.589542 L743.860393,736 L751.060763,750.589542 L767.161278,752.929084 L755.510836,764.285458 L758.261132,780.320916 L743.860393,772.75 Z M910.360393,923.5 L888.612339,934.933629 L892.765848,910.716814 L875.171302,893.566371 L899.486366,890.033186 L910.360393,868 L921.23442,890.033186 L945.549484,893.566371 L927.954939,910.716814 L932.108448,934.933629 L910.360393,923.5 Z M777.860393,855.75 L763.459655,863.320916 L766.209951,847.285458 L754.559509,835.929084 L770.660024,833.589542 L777.860393,819 L785.060763,833.589542 L801.161278,835.929084 L789.510836,847.285458 L792.261132,863.320916 L777.860393,855.75 Z M897.860393,807.75 L883.459655,815.320916 L886.209951,799.285458 L874.559509,787.929084 L890.660024,785.589542 L897.860393,771 L905.060763,785.589542 L921.161278,787.929084 L909.510836,799.285458 L912.261132,815.320916 L897.860393,807.75 Z M1088.86039,936.25 L1063.29173,949.692239 L1068.17491,921.22112 L1047.48943,901.057761 L1076.07606,896.90388 L1088.86039,871 L1101.64472,896.90388 L1130.23135,901.057761 L1109.54587,921.22112 L1114.42905,949.692239 L1088.86039,936.25 Z M1132.86039,801.25 L1113.16959,811.602069 L1116.9302,789.676035 L1101,774.147931 L1123.01499,770.948965 L1132.86039,751 L1142.7058,770.948965 L1164.72079,774.147931 L1148.79059,789.676035 L1152.5512,811.602069 L1132.86039,801.25 Z M1213.86039,901.25 L1194.16959,911.602069 L1197.9302,889.676035 L1182,874.147931 L1204.01499,870.948965 L1213.86039,851 L1223.7058,870.948965 L1245.72079,874.147931 L1229.79059,889.676035 L1233.5512,911.602069 L1213.86039,901.25 Z M1359.91322,769 L1330.52396,784.45085 L1336.13681,751.725425 L1312.36039,728.54915 L1345.21859,723.774575 L1359.91322,694 L1374.60785,723.774575 L1407.46604,728.54915 L1383.68963,751.725425 L1389.30248,784.45085 L1359.91322,769 Z M1407.86039,868.25 L1388.16959,878.602069 L1391.9302,856.676035 L1376,841.147931 L1398.01499,837.948965 L1407.86039,818 L1417.7058,837.948965 L1439.72079,841.147931 L1423.79059,856.676035 L1427.5512,878.602069 L1407.86039,868.25 Z" id="Combined-Shape-Copy-2"></path>
        </g>
    </g>
</svg>