<svg width="1278px" height="271px" viewBox="0 0 1278 271" version="1.1" xmlns="http://www.w3.org/2000/svg" xmlns:xlink="http://www.w3.org/1999/xlink">
    <!-- Generator: Sketch 50.2 (55047) - http://www.bohemiancoding.com/sketch -->
    <desc>Created with Sketch.</desc>
    <defs>
        <linearGradient x1="50%" y1="0%" x2="50%" y2="127.506996%" id="linearGradient-1">
            <stop stop-color="#C6FFD0" offset="0%"></stop>
            <stop stop-color="#FFFFFF" stop-opacity="0" offset="100%"></stop>
        </linearGradient>
    </defs>
    <g id="iconAnim" stroke="none" stroke-width="1" fill="none" fill-rule="evenodd">
        <g id="Desktop-HD" transform="translate(0.000000, -377.000000)" fill="url(#linearGradient-1)">
            <path d="M31.8603933,536.25 L12.1695873,546.602069 L15.9301966,524.676035 L1.42108547e-14,509.147931 L22.0149903,505.948965 L31.8603933,486 L41.7057963,505.948965 L63.7207866,509.147931 L47.7905899,524.676035 L51.5511992,546.602069 L31.8603933,536.25 Z M127.860393,603.25 L108.169587,613.602069 L111.930197,591.676035 L96,576.147931 L118.01499,572.948965 L127.860393,553 L137.705796,572.948965 L159.720787,576.147931 L143.79059,591.676035 L147.551199,613.602069 L127.860393,603.25 Z M195.860393,519.75 L182.635225,526.702882 L185.161007,511.976441 L174.461622,501.547118 L189.247809,499.398559 L195.860393,486 L202.472977,499.398559 L217.259165,501.547118 L206.559779,511.976441 L209.085561,526.702882 L195.860393,519.75 Z M367.860393,637.25 L348.169587,647.602069 L351.930197,625.676035 L336,610.147931 L358.01499,606.948965 L367.860393,587 L377.705796,606.948965 L399.720787,610.147931 L383.79059,625.676035 L387.551199,647.602069 L367.860393,637.25 Z M300.860393,471.25 L281.169587,481.602069 L284.930197,459.676035 L269,444.147931 L291.01499,440.948965 L300.860393,421 L310.705796,440.948965 L332.720787,444.147931 L316.79059,459.676035 L320.551199,481.602069 L300.860393,471.25 Z M581.860393,455.75 L567.459655,463.320916 L570.209951,447.285458 L558.559509,435.929084 L574.660024,433.589542 L581.860393,419 L589.060763,433.589542 L605.161278,435.929084 L593.510836,447.285458 L596.261132,463.320916 L581.860393,455.75 Z M748.360393,606.5 L726.612339,617.933629 L730.765848,593.716814 L713.171302,576.566371 L737.486366,573.033186 L748.360393,551 L759.23442,573.033186 L783.549484,576.566371 L765.954939,593.716814 L770.108448,617.933629 L748.360393,606.5 Z M615.860393,538.75 L601.459655,546.320916 L604.209951,530.285458 L592.559509,518.929084 L608.660024,516.589542 L615.860393,502 L623.060763,516.589542 L639.161278,518.929084 L627.510836,530.285458 L630.261132,546.320916 L615.860393,538.75 Z M735.860393,490.75 L721.459655,498.320916 L724.209951,482.285458 L712.559509,470.929084 L728.660024,468.589542 L735.860393,454 L743.060763,468.589542 L759.161278,470.929084 L747.510836,482.285458 L750.261132,498.320916 L735.860393,490.75 Z M926.860393,619.25 L901.291735,632.692239 L906.174914,604.22112 L885.489435,584.057761 L914.076064,579.90388 L926.860393,554 L939.644723,579.90388 L968.231352,584.057761 L947.545873,604.22112 L952.429052,632.692239 L926.860393,619.25 Z M970.860393,484.25 L951.169587,494.602069 L954.930197,472.676035 L939,457.147931 L961.01499,453.948965 L970.860393,434 L980.705796,453.948965 L1002.72079,457.147931 L986.79059,472.676035 L990.551199,494.602069 L970.860393,484.25 Z M1051.86039,584.25 L1032.16959,594.602069 L1035.9302,572.676035 L1020,557.147931 L1042.01499,553.948965 L1051.86039,534 L1061.7058,553.948965 L1083.72079,557.147931 L1067.79059,572.676035 L1071.5512,594.602069 L1051.86039,584.25 Z M1197.91322,452 L1168.52396,467.45085 L1174.13681,434.725425 L1150.36039,411.54915 L1183.21859,406.774575 L1197.91322,377 L1212.60785,406.774575 L1245.46604,411.54915 L1221.68963,434.725425 L1227.30248,467.45085 L1197.91322,452 Z M1245.86039,551.25 L1226.16959,561.602069 L1229.9302,539.676035 L1214,524.147931 L1236.01499,520.948965 L1245.86039,501 L1255.7058,520.948965 L1277.72079,524.147931 L1261.79059,539.676035 L1265.5512,561.602069 L1245.86039,551.25 Z" id="Combined-Shape-Copy"></path>
        </g>
    </g>
</svg>