<svg width="1279px" height="271px" viewBox="0 0 1279 271" version="1.1" xmlns="http://www.w3.org/2000/svg" xmlns:xlink="http://www.w3.org/1999/xlink">
    <!-- Generator: Sketch 50.2 (55047) - http://www.bohemiancoding.com/sketch -->
    <desc>Created with Sketch.</desc>
    <defs>
        <linearGradient x1="50%" y1="0%" x2="50%" y2="127.506996%" id="linearGradient-1">
            <stop stop-color="#FFC6F4" offset="0%"></stop>
            <stop stop-color="#FFFFFF" stop-opacity="0" offset="100%"></stop>
        </linearGradient>
    </defs>
    <g id="iconAnim" stroke="none" stroke-width="1" fill="none" fill-rule="evenodd">
        <g id="Desktop-HD" transform="translate(-71.000000, -76.000000)" fill="url(#linearGradient-1)">
            <path d="M103.5,235.25 L83.809194,245.602069 L87.5698034,223.676035 L71.6396067,208.147931 L93.654597,204.948965 L103.5,185 L113.345403,204.948965 L135.360393,208.147931 L119.430197,223.676035 L123.190806,245.602069 L103.5,235.25 Z M199.5,302.25 L179.809194,312.602069 L183.569803,290.676035 L167.639607,275.147931 L189.654597,271.948965 L199.5,252 L209.345403,271.948965 L231.360393,275.147931 L215.430197,290.676035 L219.190806,312.602069 L199.5,302.25 Z M267.5,218.75 L254.274832,225.702882 L256.800614,210.976441 L246.101228,200.547118 L260.887416,198.398559 L267.5,185 L274.112584,198.398559 L288.898772,200.547118 L278.199386,210.976441 L280.725168,225.702882 L267.5,218.75 Z M439.5,336.25 L419.809194,346.602069 L423.569803,324.676035 L407.639607,309.147931 L429.654597,305.948965 L439.5,286 L449.345403,305.948965 L471.360393,309.147931 L455.430197,324.676035 L459.190806,346.602069 L439.5,336.25 Z M372.5,170.25 L352.809194,180.602069 L356.569803,158.676035 L340.639607,143.147931 L362.654597,139.948965 L372.5,120 L382.345403,139.948965 L404.360393,143.147931 L388.430197,158.676035 L392.190806,180.602069 L372.5,170.25 Z M653.5,154.75 L639.099261,162.320916 L641.849558,146.285458 L630.199115,134.929084 L646.299631,132.589542 L653.5,118 L660.700369,132.589542 L676.800885,134.929084 L665.150442,146.285458 L667.900739,162.320916 L653.5,154.75 Z M820,305.5 L798.251946,316.933629 L802.405454,292.716814 L784.810909,275.566371 L809.125973,272.033186 L820,250 L830.874027,272.033186 L855.189091,275.566371 L837.594546,292.716814 L841.748054,316.933629 L820,305.5 Z M687.5,237.75 L673.099261,245.320916 L675.849558,229.285458 L664.199115,217.929084 L680.299631,215.589542 L687.5,201 L694.700369,215.589542 L710.800885,217.929084 L699.150442,229.285458 L701.900739,245.320916 L687.5,237.75 Z M807.5,189.75 L793.099261,197.320916 L795.849558,181.285458 L784.199115,169.929084 L800.299631,167.589542 L807.5,153 L814.700369,167.589542 L830.800885,169.929084 L819.150442,181.285458 L821.900739,197.320916 L807.5,189.75 Z M998.5,318.25 L972.931342,331.692239 L977.814521,303.22112 L957.129042,283.057761 L985.715671,278.90388 L998.5,253 L1011.28433,278.90388 L1039.87096,283.057761 L1019.18548,303.22112 L1024.06866,331.692239 L998.5,318.25 Z M1042.5,183.25 L1022.80919,193.602069 L1026.5698,171.676035 L1010.63961,156.147931 L1032.6546,152.948965 L1042.5,133 L1052.3454,152.948965 L1074.36039,156.147931 L1058.4302,171.676035 L1062.19081,193.602069 L1042.5,183.25 Z M1123.5,283.25 L1103.80919,293.602069 L1107.5698,271.676035 L1091.63961,256.147931 L1113.6546,252.948965 L1123.5,233 L1133.3454,252.948965 L1155.36039,256.147931 L1139.4302,271.676035 L1143.19081,293.602069 L1123.5,283.25 Z M1269.55283,151 L1240.16356,166.45085 L1245.77641,133.725425 L1222,110.54915 L1254.85819,105.774575 L1269.55283,76 L1284.24746,105.774575 L1317.10565,110.54915 L1293.32924,133.725425 L1298.94209,166.45085 L1269.55283,151 Z M1317.5,250.25 L1297.80919,260.602069 L1301.5698,238.676035 L1285.63961,223.147931 L1307.6546,219.948965 L1317.5,200 L1327.3454,219.948965 L1349.36039,223.147931 L1333.4302,238.676035 L1337.19081,260.602069 L1317.5,250.25 Z" id="Combined-Shape"></path>
        </g>
    </g>
</svg>